<svg width="15" height="15" viewBox="0 0 15 15" fill="none" xmlns="http://www.w3.org/2000/svg">
<path d="M5.84916 1.87752L5.84915 1.87757L5.77763 2.36593L5.73987 2.62383L5.50681 2.74054L5.11111 2.93871L5.11101 2.93877C4.90584 3.04146 4.625 3.20158 4.49797 3.28611C4.49796 3.28612 4.49795 3.28612 4.49794 3.28613L4.22733 3.46622L4.0104 3.61059L3.76779 3.51547L2.7595 3.12011L2.75948 3.1201C2.44263 2.99584 2.18987 2.90468 2.01004 2.84805C1.98588 2.84044 1.96365 2.83365 1.9433 2.82763C1.93626 2.83782 1.92869 2.84893 1.92057 2.861C1.77304 3.08037 1.52339 3.49618 1.03894 4.31088C0.847006 4.63366 0.70107 4.89508 0.604666 5.0855C0.581056 5.13214 0.561296 5.17279 0.54505 5.20772C0.651427 5.30359 0.836849 5.45141 1.16633 5.70547L2.02735 6.36941L2.21893 6.51714L2.22199 6.75905L2.23123 7.49112L2.24047 8.22325L2.24363 8.47402L2.04452 8.62652L1.17427 9.29302L0.870253 8.89606L1.17427 9.29302C0.840808 9.5484 0.653146 9.69689 0.545476 9.79317C0.561645 9.8279 0.581273 9.86827 0.604686 9.91451C0.701101 10.1049 0.847037 10.3664 1.03894 10.6891C1.52339 11.5038 1.77304 11.9196 1.92057 12.139C1.92869 12.1511 1.93626 12.1622 1.9433 12.1724C1.96365 12.1663 1.98588 12.1596 2.01004 12.152C2.18987 12.0953 2.44263 12.0042 2.75948 11.8799L2.7595 11.8799L3.76779 11.4845L4.0104 11.3894L4.22733 11.5338L4.49794 11.7139C4.49795 11.7139 4.49796 11.7139 4.49797 11.7139C4.625 11.7984 4.90584 11.9585 5.11101 12.0612L5.11111 12.0613L5.50681 12.2595L5.73986 12.3762L5.77763 12.6341L5.84915 13.1224L5.84916 13.1225L6.00011 14.1538C6.00011 14.1539 6.00011 14.1539 6.00012 14.1539C6.01079 14.2268 6.01889 14.285 6.02546 14.3322C6.03407 14.3941 6.04007 14.4372 6.04582 14.47C6.10478 14.4793 6.20621 14.4892 6.37708 14.4944C6.57905 14.5006 6.83633 14.5002 7.17756 14.4998C7.27758 14.4996 7.38482 14.4995 7.5 14.4995C7.55668 14.4995 7.6115 14.4995 7.66452 14.4995C8.07189 14.4996 8.37353 14.4997 8.60377 14.493C8.77448 14.488 8.88377 14.4795 8.95339 14.4702C8.95588 14.4514 8.95848 14.4304 8.96151 14.4059C8.96377 14.3877 8.96627 14.3675 8.96915 14.3448L8.96916 14.3447C8.99492 14.1414 9.06311 13.6722 9.12078 13.3005L9.22521 12.6271L9.264 12.3769L9.48856 12.2601L9.96521 12.0122L9.96529 12.0121C10.2272 11.876 10.5013 11.7192 10.5762 11.668L10.5762 11.668L10.762 11.5409L10.9803 11.3916L11.2266 11.488L12.234 11.8824L12.234 11.8824C12.5638 12.0115 12.8151 12.1022 12.9911 12.157C13.0144 12.1643 13.0357 12.1707 13.0552 12.1764C13.0877 12.1321 13.1265 12.0741 13.1709 12.0007C13.7544 11.0348 14.0998 10.4547 14.2993 10.0962C14.3743 9.96152 14.4246 9.86532 14.4578 9.79619C14.351 9.70166 14.1637 9.55526 13.828 9.30126L12.9578 8.64272L12.7595 8.49267V8.24401V7.49988V6.75575V6.50654L12.9585 6.35651L13.8287 5.70036L13.8288 5.70034C14.1624 5.44882 14.3492 5.30354 14.456 5.20964C14.4402 5.17532 14.4208 5.13524 14.3975 5.08908C14.302 4.90015 14.1563 4.63923 13.9611 4.31088C13.4766 3.49618 13.227 3.08037 13.0794 2.861C13.0713 2.84893 13.0637 2.83783 13.0567 2.82763C13.0363 2.83365 13.0141 2.84044 12.99 2.84805C12.8101 2.90468 12.5574 2.99584 12.2405 3.1201L12.2405 3.12011L11.2322 3.51547L10.9896 3.61059L10.7727 3.46622L10.5021 3.28613C10.375 3.20161 10.0942 3.04146 9.88899 2.93877L9.88889 2.93871L9.49319 2.74054L9.26013 2.62383L9.22237 2.36593L9.15085 1.87757L9.15084 1.87753L8.99989 0.846156L8.99988 0.846097L5.84916 1.87752ZM5.84916 1.87752L6.00011 0.846132L5.84916 1.87752ZM14.5086 5.33819C14.5086 5.33814 14.5082 5.33695 14.5077 5.3347C14.5084 5.33711 14.5087 5.33824 14.5086 5.33819ZM0.490584 9.66036C0.490633 9.6604 0.49104 9.66171 0.49166 9.66417C0.490846 9.66155 0.490536 9.66032 0.490584 9.66036ZM0.490588 5.33962C0.49054 5.33966 0.490849 5.33843 0.491663 5.33581C0.491043 5.33827 0.490636 5.33958 0.490588 5.33962ZM8.46438 4.52306L8.46437 4.52305C6.38559 3.9093 4.30152 5.3452 4.30152 7.5C4.30152 9.26869 5.71271 10.6102 7.5 10.6102C9.28949 10.6102 10.6942 9.27216 10.6955 7.50036C10.6965 6.12699 9.7841 4.91274 8.46438 4.52306Z" stroke="#255EA2"/>
</svg>
