<svg width="80" height="80" viewBox="0 0 80 80" fill="none" xmlns="http://www.w3.org/2000/svg">
<path fill-rule="evenodd" clip-rule="evenodd" d="M11.4446 1.67007C11.1995 2.58853 10.789 3.42068 10.5324 3.51928C10.2758 3.61788 9.34242 3.31413 8.45838 2.84424L6.85104 1.98971L4.41804 4.42763L1.98539 6.86591L2.83808 8.47675C3.30695 9.36271 3.61004 10.2981 3.51165 10.5553C3.41326 10.8125 2.58292 11.2238 1.66645 11.4694L0 11.9158V15.486V19.0566L1.63654 19.4694C2.53643 19.6966 3.35885 20.1065 3.46372 20.3803C3.56859 20.6541 3.30298 21.5679 2.87412 22.4105L2.09387 23.9433L4.57517 26.43L7.05682 28.9167L8.5092 28.1195C9.30818 27.6811 10.2113 27.4181 10.5162 27.5355C10.8215 27.6529 11.2583 28.4941 11.4871 29.405L11.9034 31.0609H15.4662H19.029L19.4611 29.2551C19.9617 27.1632 20.5729 26.9627 22.6077 28.2232L23.8572 28.9968L26.3954 26.4527L28.934 23.909L28.162 22.6568C26.9043 20.6176 27.1043 20.0051 29.1917 19.5034C30.9201 19.0877 30.9936 19.0198 30.9936 17.8297V16.5894L34.8678 16.692L38.742 16.7946L38.9543 18.3884C39.1032 19.507 39.4585 20.234 40.1458 20.8264L41.125 21.6704H53.0254H64.9259L65.9793 20.6147C66.7992 19.793 67.0328 19.2325 67.0328 18.0865V16.614L69.6456 16.6219C72.8509 16.6317 74.8129 17.4386 76.2645 19.3445L77.3039 20.709L77.416 27.3008C77.5187 33.3497 77.4675 34.0117 76.7936 35.3358C75.1498 38.5643 73.1277 39.0595 62.1372 38.9237L54.2389 38.8262L54.1344 37.7427C53.9527 35.8631 53.3101 34.7417 52.079 34.1562C50.307 33.3136 29.6998 33.3136 27.9278 34.1562C26.6967 34.7417 26.0541 35.8631 25.8725 37.7427L25.768 38.8262L15.8572 39.0068C4.96331 39.2054 4.91934 39.2137 2.54688 41.5993C0.233534 43.9252 0.0165779 44.878 0.00792855 52.7574C-0.00144162 61.1319 0.283988 62.3769 2.73213 64.6386C4.86456 66.6084 5.7313 66.9291 9.55037 67.1617L12.7939 67.3589L13.0008 68.9123C13.1359 69.9261 13.5457 70.8045 14.1803 71.4405L15.1526 72.4154H27.0293H38.906L39.8784 71.4405C40.513 70.8045 40.9228 69.9261 41.0579 68.9123L41.2648 67.3589H46.4494H51.634L52.1317 69.3074C53.2233 73.583 56.1792 77.1872 60.1068 79.0321C61.9318 79.8891 62.6003 80 65.9516 80C69.4077 80 69.9231 79.9079 71.898 78.9385C74.6575 77.5841 77.416 74.8197 78.7674 72.0542C79.7351 70.0742 79.8266 69.5592 79.8266 66.0872C79.8266 62.5322 79.7513 62.1342 78.6586 59.9093C77.2516 57.0456 74.6741 54.5091 71.7964 53.1576C69.9516 52.2911 69.3202 52.19 65.7714 52.1914C62.0197 52.1932 61.691 52.2543 59.6447 53.3349C55.8415 55.3434 52.625 59.5048 52.0394 63.1754L51.8041 64.6501H46.4443H41.0846L41.0767 63.2957C41.068 61.8568 40.327 60.6588 39.0361 59.9971C38.506 59.7255 34.5799 59.5937 27.0185 59.5937C17.1878 59.5937 15.6615 59.6688 14.7724 60.195C13.5979 60.8903 12.9741 62.0656 12.9741 63.5836V64.6501H10.0499C6.50506 64.6501 4.71247 63.8165 3.3884 61.5523C2.55589 60.1286 2.52274 59.8071 2.52274 53.1366C2.52274 46.9407 2.59878 46.0522 3.23523 44.8014C4.86492 41.6007 6.80923 41.1225 17.6592 41.2554L25.768 41.3544L25.8725 42.4379C26.0552 44.3287 26.6992 45.44 27.9588 46.0388C29.0187 46.543 30.6967 46.6066 40.5314 46.5156L51.8808 46.4108L52.8532 45.436C53.4871 44.8004 53.8972 43.9213 54.032 42.9078L54.2389 41.3544L64.1496 41.1738C75.0435 40.9752 75.0875 40.9669 77.4599 38.5813C79.7535 36.2752 79.9903 35.2675 79.9989 27.7613C80.0068 21.0882 79.9982 21.0142 79.0003 19.0996C77.1897 15.6258 74.1721 14.0858 69.1774 14.0858H67.0328V12.6938C67.0328 11.1314 65.8723 9.56497 64.4506 9.20885C63.9878 9.09291 58.4457 9.0456 52.1349 9.10411L40.6611 9.20993L39.7915 10.2234C39.1907 10.9241 38.9222 11.6764 38.9222 12.6613V14.0858H34.9579H30.9936V13.0073C30.9936 12.0278 30.8423 11.8909 29.3412 11.5121C28.4323 11.2827 27.593 10.845 27.4759 10.5391C27.3587 10.2335 27.6211 9.3284 28.0586 8.52767L28.854 7.07214L26.3727 4.5851L23.8914 2.09842L22.3619 2.88036C21.5211 3.31016 20.6306 3.58429 20.383 3.4893C20.1358 3.39431 19.7249 2.57011 19.4701 1.65815L19.007 0H15.4485H11.89L11.4446 1.67007ZM17.4591 3.814C17.6649 4.91232 17.9403 5.20271 19.3487 5.80804C20.9683 6.50366 21.0184 6.50402 22.1496 5.83512L23.3014 5.15431L24.5174 6.14862L25.7334 7.1433L25.0569 8.6465C24.388 10.1327 24.3891 10.1667 25.138 11.7111C25.7672 13.0095 26.1154 13.3143 27.202 13.5187C28.5044 13.7636 28.5084 13.7701 28.3999 15.46C28.2954 17.0832 28.2338 17.1698 26.9666 17.4837C25.8375 17.7633 25.551 18.0515 25.023 19.4366C24.4324 20.9864 24.4342 21.1186 25.0616 22.2862L25.7197 23.5106L24.5898 24.6433L23.4597 25.7755L22.2379 25.116C21.0728 24.4872 20.9409 24.4854 19.3944 25.0774C18.0123 25.6065 17.7248 25.8936 17.4458 27.0252C17.1326 28.2951 17.0461 28.3568 15.4265 28.4616C13.7403 28.5703 13.7338 28.5663 13.4894 27.261C13.2855 26.1721 12.9813 25.8232 11.6857 25.1926C10.1587 24.4489 10.0985 24.4468 8.67858 25.0886L7.22981 25.743L6.15872 24.5945L5.088 23.4456L5.79509 22.2443C6.49749 21.051 6.49749 21.0326 5.79545 19.3907C5.19143 17.9792 4.90168 17.7033 3.80573 17.4971C2.55013 17.2612 2.52274 17.2197 2.52274 15.5474C2.52274 13.8785 2.55481 13.8293 3.9088 13.4227C5.04692 13.081 5.39902 12.7408 5.87762 11.5193C6.42722 10.1172 6.42145 9.95503 5.77239 8.68009L5.08404 7.32786L6.23585 6.2205L7.38802 5.1135L8.69804 5.79467C9.93166 6.43612 10.0946 6.44153 11.4932 5.89111C12.7132 5.41075 13.0526 5.05824 13.3936 3.91729C13.7994 2.56036 13.8484 2.52822 15.5138 2.52822C17.1824 2.52822 17.2238 2.55567 17.4591 3.814ZM13.8751 7.91476C10.1216 8.85743 7.81364 11.7728 7.8104 15.5767C7.80643 19.6804 10.767 22.7825 14.9418 23.049C18.238 23.2592 20.8252 21.7297 22.4152 18.6301C23.4535 16.6064 23.2146 13.2681 21.8873 11.2585C20.2234 8.73824 16.6061 7.22853 13.8751 7.91476ZM17.5615 10.8222C22.5493 13.0911 20.9654 20.5797 15.4968 20.5833C13.2855 20.5847 11.6626 19.5287 10.7706 17.5083C9.87183 15.472 10.1403 13.7434 11.6172 12.0578C13.2901 10.1486 15.2056 9.75025 17.5615 10.8222ZM64.434 15.1155C64.501 17.2952 64.3896 18.672 64.1193 18.9981C63.7781 19.4106 61.7235 19.5034 52.9537 19.5034C42.2566 19.5034 42.204 19.4998 41.6457 18.7005C41.0031 17.7817 40.8759 13.9608 41.4381 12.4789L41.7913 11.5471L53.0607 11.6428L64.3298 11.7381L64.434 15.1155ZM43.9677 15.3499C43.9677 16.5537 44.0279 16.614 45.2291 16.614C46.4303 16.614 46.4905 16.5537 46.4905 15.3499C46.4905 14.1461 46.4303 14.0858 45.2291 14.0858C44.0279 14.0858 43.9677 14.1461 43.9677 15.3499ZM49.0132 15.3499C49.0132 16.5537 49.0734 16.614 50.2746 16.614C51.4757 16.614 51.5359 16.5537 51.5359 15.3499C51.5359 14.1461 51.4757 14.0858 50.2746 14.0858C49.0734 14.0858 49.0132 14.1461 49.0132 15.3499ZM54.4191 15.3271C54.4191 16.5613 54.4717 16.614 55.7031 16.614C56.935 16.614 56.9829 16.566 56.8744 15.4402C56.7753 14.4079 56.6203 14.2526 55.5903 14.1533C54.467 14.0446 54.4191 14.0926 54.4191 15.3271ZM59.4645 15.3499C59.4645 16.5537 59.5247 16.614 60.7259 16.614C61.9271 16.614 61.9873 16.5537 61.9873 15.3499C61.9873 14.1461 61.9271 14.0858 60.7259 14.0858C59.5247 14.0858 59.4645 14.1461 59.4645 15.3499ZM51.1755 36.471C51.5911 36.7343 51.7161 37.5704 51.7161 40.0903C51.7161 42.6102 51.5911 43.4463 51.1755 43.7096C50.8663 43.9054 46.0836 44.052 40.0034 44.052C33.9233 44.052 29.1405 43.9054 28.8313 43.7096C28.4158 43.4463 28.2907 42.6102 28.2907 40.0903C28.2907 37.5704 28.4158 36.7343 28.8313 36.471C29.1405 36.2752 33.9233 36.1286 40.0034 36.1286C46.0836 36.1286 50.8663 36.2752 51.1755 36.471ZM30.9936 40.0903C30.9936 41.0879 31.0938 41.1738 32.255 41.1738C33.4162 41.1738 33.5164 41.0879 33.5164 40.0903C33.5164 39.0927 33.4162 39.0068 32.255 39.0068C31.0938 39.0068 30.9936 39.0927 30.9936 40.0903ZM36.0391 40.0903C36.0391 41.0879 36.1393 41.1738 37.3005 41.1738C38.4617 41.1738 38.5619 41.0879 38.5619 40.0903C38.5619 39.0927 38.4617 39.0068 37.3005 39.0068C36.1393 39.0068 36.0391 39.0927 36.0391 40.0903ZM41.445 40.0903C41.445 41.0879 41.5452 41.1738 42.7063 41.1738C43.8675 41.1738 43.9677 41.0879 43.9677 40.0903C43.9677 39.0927 43.8675 39.0068 42.7063 39.0068C41.5452 39.0068 41.445 39.0927 41.445 40.0903ZM46.4905 40.0903C46.4905 41.0879 46.5906 41.1738 47.7518 41.1738C48.913 41.1738 49.0132 41.0879 49.0132 40.0903C49.0132 39.0927 48.913 39.0068 47.7518 39.0068C46.5906 39.0068 46.4905 39.0927 46.4905 40.0903ZM70.0103 55.1126C72.488 55.9343 75.3358 58.6785 76.5698 61.4346C77.4614 63.4261 77.5526 63.9827 77.4156 66.6008C77.2916 68.9658 77.0606 69.9055 76.2242 71.446C74.1159 75.3275 70.9232 77.3306 66.4518 77.5769C63.8368 77.7206 63.2937 77.6321 61.3015 76.7361C55.3676 74.0674 52.6095 67.0512 55.235 61.3038C57.8655 55.5453 63.8058 53.0561 70.0103 55.1126ZM66.7707 64.7289L62.0136 69.496L61.1641 68.6963L60.3147 67.8967L59.4415 68.8282L58.5682 69.7596L60.3133 71.4116L62.0579 73.064L67.6941 67.4156L73.3299 61.7676L72.4289 60.8643L71.5279 59.9614L66.7707 64.7289ZM38.6011 63.1151C39.1551 64.5555 38.8624 69.2952 38.1935 69.7192C37.3599 70.2476 16.4616 70.1678 15.9293 69.6343C15.4691 69.1731 15.3004 62.8002 15.7372 62.3628C15.8691 62.2303 20.9816 62.1219 27.0982 62.1219H38.2195L38.6011 63.1151ZM18.0196 65.9142C18.0196 67.118 18.0797 67.1783 19.2809 67.1783C20.4821 67.1783 20.5423 67.118 20.5423 65.9142C20.5423 64.7104 20.4821 64.6501 19.2809 64.6501C18.0797 64.6501 18.0196 64.7104 18.0196 65.9142ZM23.3054 64.891C23.1732 65.0232 23.065 65.5921 23.065 66.1551C23.065 67.0837 23.1818 67.1783 24.3264 67.1783C25.5276 67.1783 25.5878 67.118 25.5878 65.9142C25.5878 64.7671 25.4933 64.6501 24.5668 64.6501C24.0049 64.6501 23.4373 64.7585 23.3054 64.891ZM28.4709 65.9142C28.4709 67.118 28.5311 67.1783 29.7323 67.1783C30.9335 67.1783 30.9936 67.118 30.9936 65.9142C30.9936 64.7104 30.9335 64.6501 29.7323 64.6501C28.5311 64.6501 28.4709 64.7104 28.4709 65.9142ZM33.5164 65.9142C33.5164 67.118 33.5766 67.1783 34.7777 67.1783C35.9789 67.1783 36.0391 67.118 36.0391 65.9142C36.0391 64.7104 35.9789 64.6501 34.7777 64.6501C33.5766 64.6501 33.5164 64.7104 33.5164 65.9142Z" fill="#255EA2"/>
</svg>
