<svg width="49" height="68" viewBox="0 0 49 68" fill="none" xmlns="http://www.w3.org/2000/svg">
<path fill-rule="evenodd" clip-rule="evenodd" d="M0.321645 0.326055L0 0.651977V34V67.348L0.321645 67.674L0.643157 68H24.5H48.3568L48.6784 67.674L49 67.348V56.4692C49 45.6647 48.9982 45.5882 48.7284 45.2406C48.5315 44.9868 48.3361 44.8906 48.0174 44.8906C47.6986 44.8906 47.5033 44.9868 47.3064 45.2406C47.037 45.5878 47.0348 45.6725 47.0348 55.7992V66.0078H38.0602H29.0856V62.4823V58.9567L28.7639 58.6307C28.4495 58.3119 28.3964 58.3047 26.3578 58.3047C24.4473 58.3047 24.2445 58.3277 23.9281 58.58C23.4507 58.9606 23.4507 59.6409 23.9281 60.0216C24.2292 60.2617 24.4551 60.2969 25.6968 60.2969H27.1203V61.2266V62.1562H21.2901H15.4599V61.2266V60.2969H17.8005C19.9701 60.2969 20.1664 60.2768 20.4863 60.0216C20.9637 59.6409 20.9637 58.9606 20.4863 58.58C20.1446 58.3075 20.0489 58.3047 11.0532 58.3047H1.96524V30.1484V1.99219H3.71627C5.28938 1.99219 5.50241 1.96416 5.81253 1.71687C6.28995 1.33623 6.28995 0.655961 5.81253 0.27532C5.49167 0.0193906 5.29711 0 3.05529 0C0.668968 0 0.639752 0.00345313 0.321645 0.326055ZM9.25432 0.27532C9.00395 0.474937 8.90909 0.672961 8.90909 0.996094C8.90909 1.31923 9.00395 1.51725 9.25432 1.71687C9.59797 1.99099 9.65287 1.99219 22.0284 1.99219H34.4572V4.44922V6.90625H24.762H15.0668L15.0666 5.81055C15.0665 4.49278 14.8232 3.89393 14.1497 3.553C13.7549 3.35298 13.2908 3.32071 10.8088 3.32071C7.5481 3.32071 7.19855 3.40133 6.78034 4.25C6.56941 4.67805 6.5512 5.3882 6.5512 13.2148C6.5512 21.0415 6.56941 21.7516 6.78034 22.1797C7.19855 23.0284 7.5481 23.109 10.8088 23.109C13.2908 23.109 13.7549 23.0767 14.1497 22.8767C14.8232 22.5358 15.0665 21.9369 15.0666 20.6191L15.0668 19.5234L28.0702 19.5232C40.1875 19.523 41.1047 19.5072 41.5321 19.2908C42.2839 18.9101 42.4488 18.3968 42.4489 16.4355L42.4492 14.7422H44.742H47.0348V28.0719C47.0348 41.3562 47.0357 41.4028 47.3064 41.7516C47.6818 42.2356 48.3529 42.2356 48.7284 41.7516C48.9992 41.4027 49 41.3615 49 27.6157C49 18.3467 48.9551 13.7073 48.863 13.4559C48.6802 12.9573 36.3486 0.426062 35.8043 0.18607C35.4523 0.0306797 33.2557 0 22.4911 0C9.64737 0 9.59824 0.00106249 9.25432 0.27532ZM41.0735 8.10156L45.6577 12.75H41.0401H36.4225V8.10156C36.4225 5.54492 36.4375 3.45312 36.4559 3.45312C36.4743 3.45312 38.5523 5.54492 41.0735 8.10156ZM13.1016 7.10547V8.89844H10.8088H8.51604V7.10547V5.3125H10.8088H13.1016V7.10547ZM21.7487 10.0273C21.7487 11.3116 21.9563 11.6875 22.6658 11.6875C23.3752 11.6875 23.5829 11.3116 23.5829 10.0273V8.89844H29.0201H34.4572V11.4943C34.4572 14.9959 34.1968 14.7422 37.7922 14.7422H40.484V16.1367V17.5312H32.0334H23.5829V16.2695C23.5829 14.8415 23.3962 14.4766 22.6658 14.4766C21.9354 14.4766 21.7487 14.8415 21.7487 16.2695V17.5312H18.4078H15.0668V13.2148V8.89844H18.4078H21.7487V10.0273ZM13.1016 13.2148V15.5391H10.8088H8.51604V13.2148V10.8906H10.8088H13.1016V13.2148ZM13.1016 19.3242V21.1172H10.8088H8.51604V19.3242V17.5312H10.8088H13.1016V19.3242ZM9.95722 26.3633C8.26384 27.3569 6.80471 28.2678 6.71457 28.3876C6.5926 28.5498 6.5508 29.5473 6.5508 32.2914C6.5508 35.9299 6.5546 35.9816 6.84559 36.2996C7.29733 36.7936 12.8701 39.9766 13.2831 39.9766C13.4999 39.9766 14.828 39.2766 16.7086 38.1714C19.6009 36.4715 19.7884 36.3379 19.9214 35.8804C20.0115 35.5705 20.0477 34.1572 20.0213 31.9781C19.9824 28.7671 19.9642 28.5459 19.7179 28.3014C19.341 27.9271 13.7763 24.6998 13.3739 24.6221C13.1129 24.5716 12.3369 24.9672 9.95722 26.3633ZM24.238 24.803C23.4008 25.2269 23.3213 25.5813 23.3213 28.8867C23.3213 31.4027 23.3531 31.8731 23.5504 32.2734C23.8973 32.9776 24.4684 33.2027 25.9084 33.2029L27.1203 33.2031V37.8516V42.5L25.9084 42.5003C24.4684 42.5004 23.8973 42.7255 23.5504 43.4297C23.3531 43.83 23.3213 44.3004 23.3213 46.8164C23.3213 49.3324 23.3531 49.8028 23.5504 50.2031C23.8973 50.9073 24.4684 51.1324 25.9084 51.1325L27.1203 51.1328V53.5254V55.9179L27.5688 56.4141L28.0173 56.9102H32.885H37.7528L38.2013 56.4141L38.6497 55.9179V53.5254V51.1328L39.8616 51.1325C41.3016 51.1324 41.8727 50.9073 42.2197 50.2031C42.417 49.8028 42.4488 49.3324 42.4488 46.8164C42.4488 44.3004 42.417 43.83 42.2197 43.4297C41.8727 42.7255 41.3016 42.5004 39.8616 42.5003L38.6497 42.5V37.8516V33.2031L39.8616 33.2029C41.3016 33.2027 41.8727 32.9776 42.2197 32.2734C42.417 31.8731 42.4488 31.4027 42.4488 28.8867C42.4488 25.5813 42.3693 25.2269 41.5321 24.803C41.1102 24.5893 40.4186 24.5707 32.885 24.5707C25.3515 24.5707 24.6598 24.5893 24.238 24.803ZM29.0856 28.8867V31.2109H27.1858H25.2861V28.8867V26.5625H27.1858H29.0856V28.8867ZM34.7193 28.8867V31.2109H32.885H31.0508V28.8867V26.5625H32.885H34.7193V28.8867ZM40.484 28.8867V31.2109H38.5842H36.6845V28.8867V26.5625H38.5842H40.484V28.8867ZM15.6716 28.1041L18.0853 29.5128L18.0501 32.3189L18.0147 35.1249L15.7219 36.4829C14.4609 37.2299 13.3736 37.8433 13.3057 37.8462C13.238 37.8492 12.1314 37.2401 10.8468 36.4928L8.51107 35.134L8.54631 32.2943L8.58155 29.4548L10.8743 28.0877C12.1354 27.3359 13.1876 26.715 13.2126 26.7081C13.2375 26.701 14.344 27.3292 15.6716 28.1041ZM11.8121 29.4273C10.6111 30.0427 10.0204 31.1469 10.1118 32.6045C10.1802 33.6917 10.6903 34.5627 11.5881 35.1255C12.1647 35.4868 12.3373 35.5273 13.2981 35.5273C14.259 35.5273 14.4315 35.4868 15.0082 35.1255C15.4057 34.8763 15.8003 34.4763 16.0461 34.0733C16.4026 33.4888 16.4425 33.3139 16.4425 32.3398C16.4425 31.3658 16.4026 31.1909 16.0461 30.6064C15.4607 29.6467 14.6253 29.1674 13.4419 29.112C12.6411 29.0745 12.415 29.1183 11.8121 29.4273ZM14.1053 31.2816C14.556 31.577 14.7274 32.2849 14.4884 32.8645C14.0512 33.9254 12.6451 33.9428 12.1371 32.8935C11.9185 32.4421 11.912 32.3388 12.0748 31.9C12.3912 31.0472 13.3171 30.7652 14.1053 31.2816ZM36.8155 35.0625V36.9219H32.885H28.9545V35.0625V33.2031H32.885H36.8155V35.0625ZM36.8155 40.707V42.5H32.885H28.9545V40.707V38.9141H32.885H36.8155V40.707ZM9.81467 41.7403C9.57098 41.9069 9.29782 42.1908 9.20768 42.3712C8.97119 42.8449 8.97119 55.5691 9.20768 56.0429C9.29782 56.2233 9.57098 56.5072 9.81467 56.6738C10.2435 56.9666 10.3546 56.9766 13.1995 56.9766C16.4138 56.9766 16.7817 56.9062 17.2536 56.2015C17.4745 55.8718 17.4906 55.3944 17.4906 49.207C17.4906 42.8373 17.4802 42.5507 17.2346 42.1831C16.7828 41.5066 16.4081 41.4375 13.1907 41.4375C10.3549 41.4375 10.2434 41.4475 9.81467 41.7403ZM15.5909 45.8203V48.2109H13.2981H11.0053V45.8203V43.4297H13.2981H15.5909V45.8203ZM31.9679 46.8164V49.1406H28.627H25.2861V46.8164V44.4922H28.627H31.9679V46.8164ZM40.484 46.8164V49.1406H37.143H33.8021V46.8164V44.4922H37.143H40.484V46.8164ZM15.5909 52.5938V54.9844H13.2981H11.0053V52.5938V50.2031H13.2981H15.5909V52.5938ZM36.8155 53.0586V54.9844H32.885H28.9545V53.0586V51.1328H32.885H36.8155V53.0586ZM13.6257 61.2266V62.1562H7.79545H1.96524V61.2266V60.2969H7.79545H13.6257V61.2266ZM9.04011 65.0781V66.0078H5.50267H1.96524V65.0781V64.1484H5.50267H9.04011V65.0781ZM18.0802 65.0781V66.0078H14.5428H11.0053V65.0781V64.1484H14.5428H18.0802V65.0781ZM27.1203 65.0781V66.0078H23.5829H20.0455V65.0781V64.1484H23.5829H27.1203V65.0781Z" fill="#255EA2"/>
</svg>
