<svg width="77" height="79" viewBox="0 0 77 79" fill="none" xmlns="http://www.w3.org/2000/svg">
<path fill-rule="evenodd" clip-rule="evenodd" d="M31.1965 0.414331C24.6102 1.58767 18.6521 4.28757 13.6241 8.37752C11.8686 9.80549 8.72169 13.0659 7.35046 14.8777C4.44977 18.7102 1.95737 23.9021 0.944311 28.2219C0.038228 32.0862 -0.000757712 32.4687 1.04812e-05 37.4678C0.000970722 42.0459 0.0332348 42.5 0.520077 44.7705C2.686 54.8729 8.3568 63.2503 16.7929 68.8102C25.7969 74.7443 37.2238 76.4841 47.8505 73.539L49.0351 73.2107L50.2431 74.4035C52.5102 76.6426 54.6548 77.8254 57.979 78.6696C60.0372 79.1924 63.8349 79.0801 65.8612 78.4364C68.5382 77.5861 71.026 76.0608 72.8116 74.1753C73.9219 73.0029 75.4709 70.7194 75.6568 69.9807C75.7661 69.5469 75.6839 69.4615 74.8091 69.0991L73.8404 68.6978L73.2215 69.8817C72.8187 70.6522 71.9954 71.6699 70.8643 72.7958C68.0671 75.5799 65.2376 76.7399 61.2749 76.7269C56.0898 76.7098 51.4968 73.8158 49.2525 69.1513C45.6854 61.7382 49.4568 53.059 57.3738 50.4611C58.8973 49.9611 62.2367 49.7735 63.8941 50.0945C70.8233 51.4371 75.7619 58.1463 74.808 64.9214C74.6908 65.7538 74.6303 66.47 74.6733 66.5129C74.7164 66.556 75.193 66.7072 75.7325 66.8491L76.7133 67.1069L76.8565 66.5975C76.9355 66.3174 77 64.7961 77 63.2167C77 60.7411 76.938 60.1471 76.55 58.9092C75.9122 56.874 74.754 54.7486 73.4195 53.1641L72.271 51.8006L72.7555 50.521C76.3645 40.9928 75.8126 30.163 71.2468 20.911C66.0277 10.3352 56.4712 2.9986 44.7699 0.584139C42.7795 0.173498 41.788 0.0906035 38.1102 0.027045C34.1882 -0.0407253 33.5497 -0.00492577 31.1965 0.414331ZM43.8717 2.71469C54.041 4.64844 62.7539 10.7552 68.0152 19.6362C72.6075 27.3876 74.0269 37.182 71.8214 45.8981C71.5359 47.0267 70.5748 50.1242 70.4704 50.2523C70.4343 50.2969 67.118 48.6269 66.9649 48.4872C66.9382 48.4627 67.0859 47.9521 67.2927 47.3525C67.4998 46.7529 67.9069 45.2528 68.1977 44.0187C68.6914 41.9228 68.7264 41.4921 68.7285 37.4678C68.7306 33.7238 68.6753 32.9063 68.3046 31.2176C66.1758 21.5146 59.9361 13.4978 51.2655 9.32516C48.5454 8.01608 47.353 7.58821 44.6399 6.94822C40.8707 6.05898 37.4915 5.87309 33.6757 6.3448C29.3093 6.88486 24.9909 8.33158 21.5265 10.4148C19.9586 11.3577 17.177 13.3772 17.177 13.5727C17.177 13.6581 17.4852 14.0681 17.862 14.4839L18.5473 15.2399L20.0873 14.1016C20.9344 13.4756 21.7024 12.9633 21.7942 12.9633C21.8862 12.9633 22.3235 13.588 22.7662 14.3513C23.2088 15.1145 23.5989 15.7723 23.6327 15.8129C23.727 15.9255 24.708 15.4808 25.2121 15.0967L25.6611 14.7548L24.7738 13.2587C24.286 12.4361 23.911 11.7415 23.9407 11.7157C23.9703 11.6898 24.5171 11.4077 25.1556 11.0887C27.6006 9.86732 31.7312 8.75926 34.9895 8.45104L36.3818 8.31933V10.1627V12.0061H37.4381H38.4943V10.2772C38.4943 8.95204 38.5587 8.52359 38.7697 8.44281C39.5064 8.161 44.4246 9.06997 47.0472 9.97261C48.6936 10.5393 50.9775 11.5625 50.9775 11.7337C50.9775 11.8034 50.6859 12.3453 50.3295 12.9382C49.1238 14.9438 49.139 14.7973 50.0802 15.3471C50.5394 15.6153 51.0001 15.8349 51.1042 15.8349C51.2081 15.8349 51.6638 15.1888 52.1171 14.3991C52.5705 13.6094 53.0043 12.9633 53.0816 12.9633C53.4916 12.9633 56.3024 15.1848 57.9119 16.781C59.4203 18.2768 61.3051 20.5545 61.9855 21.7036C62.0677 21.8424 61.5443 22.2589 60.5799 22.8225C59.7349 23.3163 59.0435 23.7445 59.0435 23.7738C59.0435 23.9183 60.0498 25.5984 60.1364 25.5984C60.1916 25.5984 60.925 25.2125 61.7665 24.7406L63.2968 23.8829L64.0229 25.4585C65.3421 28.3205 66.2705 31.8308 66.4779 34.7398L66.5904 36.3191H64.7279H62.8653L62.9229 37.4199L62.9805 38.5207L64.7852 38.5761L66.5898 38.6316L66.4635 40.299C66.3296 42.0656 65.9006 44.1372 65.1977 46.4129L64.7706 47.7959L62.4351 47.6827C61.1476 47.6203 59.64 47.655 59.0752 47.7601C57.8906 47.9804 57.9077 48.1232 58.8528 45.8912C59.8495 43.5376 60.4316 40.6252 60.4597 37.8507C60.4842 35.4201 60.3116 33.5612 60.0172 33.0863C59.8906 32.8822 59.6475 32.8621 58.921 32.9961C58.0022 33.1655 57.988 33.1789 58.0366 33.8344C58.2052 36.1086 58.1424 40.1903 57.9235 41.2009C57.3635 43.7861 56.2966 46.5008 55.0956 48.3974C54.8148 48.8408 54.1995 49.3508 53.424 49.783C51.8859 50.6405 49.6929 52.6499 48.5448 54.2536C47.6347 55.5249 46.9858 55.9666 44.8033 56.7995C43.6891 57.2249 41.059 57.8553 39.5986 58.0472L38.6864 58.167V49.8315V41.4959L39.434 41.1157C39.845 40.9067 40.4936 40.372 40.8752 39.9278C41.9234 38.7068 42.2016 37.2997 41.7165 35.6713C41.4446 34.7589 39.9393 33.1452 39.1836 32.9561L38.6864 32.8317V24.812V16.7921L39.3105 16.7946C40.3833 16.799 43.3238 17.4859 44.9429 18.1106C48.328 19.4164 51.8112 22.0457 54.0512 24.9862C55.0018 26.2342 57.123 30.2037 57.123 30.735C57.123 30.883 57.2413 30.9546 57.3911 30.8971C57.5386 30.8409 58.0139 30.6887 58.4474 30.5593C58.944 30.4109 59.2344 30.2112 59.2327 30.0192C59.2309 29.8515 58.8925 28.9596 58.4804 28.0368C54.926 20.0777 46.4782 14.4948 37.9891 14.4948H36.3818V23.5981V32.7013L35.7329 32.9716C33.9973 33.6945 33.0352 35.1617 33.0352 37.0849C33.0352 38.9848 34.0757 40.5824 35.768 41.2811L36.3818 41.5346V51.0157V60.497L38.5667 60.3667C40.7054 60.2394 43.9372 59.59 45.3393 59.0059C45.7265 58.8447 46.0756 58.7452 46.1154 58.7846C46.155 58.8242 46.0511 59.6222 45.8844 60.5579C45.7177 61.4939 45.6059 62.9486 45.636 63.791L45.6908 65.3225L44.0134 65.7429C42.3908 66.1497 38.932 66.5929 38.6384 66.4319C38.5593 66.3885 38.4943 65.5827 38.4943 64.6412V62.9295H37.4381H36.3818V64.6205C36.3818 65.5507 36.3413 66.3519 36.2919 66.4013C36.132 66.5608 32.9113 66.1819 31.2044 65.8028C28.9985 65.3131 24.5753 63.7297 23.9233 63.1966C23.8841 63.1644 24.2618 62.4413 24.7629 61.5894C25.264 60.7375 25.6417 60.014 25.6025 59.9815C25.5632 59.9491 25.1259 59.6894 24.6306 59.4045L23.7301 58.8866L22.8374 60.4295C22.3464 61.2779 21.8927 61.9723 21.8292 61.9723C21.4612 61.9723 17.9204 59.0187 16.4484 57.4838C14.8154 55.7809 12.9515 53.4151 12.9523 53.046C12.9527 52.8731 14.1163 52.1043 15.2085 51.5554C15.5517 51.3829 15.8327 51.1576 15.8327 51.0546C15.8327 50.9518 15.5936 50.4845 15.3013 50.0164L14.7699 49.1654L13.4288 49.9435C12.6911 50.3715 11.9786 50.7644 11.8452 50.8166C11.5498 50.9323 10.5477 48.8258 9.71899 46.3476C9.0595 44.3752 8.62067 42.2573 8.42459 40.0999L8.29111 38.6316L10.0935 38.5761L11.8957 38.5207L11.9533 37.4199L12.0109 36.3191H10.1768H8.34278L8.34623 35.697C8.35238 34.6073 8.89223 31.2961 9.3059 29.8101C9.78429 28.0918 10.2187 26.9064 11.0144 25.1495L11.6078 23.8393L12.52 24.37C13.0216 24.6619 13.6913 25.0574 14.0082 25.2489C14.3251 25.4403 14.641 25.5973 14.7101 25.5977C14.7793 25.5981 15.0721 25.1968 15.3608 24.7057C15.968 23.6729 16.013 23.7436 14.0585 22.665C13.4524 22.3303 12.9554 21.9586 12.9542 21.8385C12.9514 21.5569 14.4557 19.5118 15.7616 18.0218L16.7814 16.8586L16.0364 16.1336C15.6268 15.7348 15.2104 15.4398 15.1113 15.4781C14.7119 15.6324 12.4755 18.3375 11.3341 20.0466C6.16226 27.7922 4.70097 37.2369 7.29074 46.1809C10.9024 58.6546 22.2008 67.7705 35.1212 68.6354C38.7269 68.8768 43.8702 68.39 45.821 67.6225C46.0633 67.5272 46.1936 67.6694 46.3754 68.2288C46.5062 68.631 46.8625 69.4567 47.1672 70.0637L47.7213 71.1676L47.2385 71.3506C46.9731 71.4513 45.8895 71.7067 44.8306 71.9182C38.4285 73.1976 32.1754 72.8473 26.2726 70.8787C16.8138 67.7241 8.85055 60.4752 5.01823 51.5309C-1.04684 37.3755 2.50125 21.2837 13.9321 11.1044C18.7946 6.77439 24.5102 3.98816 31.1623 2.70493C34.5218 2.0569 40.4363 2.06149 43.8717 2.71469ZM38.9937 35.63C39.735 36.3689 39.8596 37.2679 39.3553 38.2399C38.2606 40.3499 34.971 39.2053 35.291 36.8257C35.4439 35.6906 36.2796 34.9791 37.4604 34.9791C38.2055 34.9791 38.441 35.079 38.9937 35.63ZM54.311 55.263C52.9141 55.5952 51.4829 56.9159 51.2473 58.0908C51.1309 58.6705 51.1396 58.6778 52.1063 58.8103C53.047 58.9393 53.1061 58.9194 53.7209 58.2698C54.4751 57.4725 55.191 57.2471 55.9605 57.5649C56.7614 57.8955 57.143 58.391 57.2429 59.2293C57.3571 60.1896 56.9982 60.8382 56.1132 61.2701C55.4036 61.6166 55.3946 61.6354 55.3946 62.7538C55.3946 63.7483 55.4403 63.8867 55.7679 63.8867C56.8954 63.8867 57.7247 65.8195 57.0424 66.8575C56.6045 67.5237 55.5726 67.9929 54.91 67.8273C54.2304 67.6571 53.2821 66.7085 53.2821 66.1987C53.2821 65.8404 53.1682 65.8011 52.1298 65.8011C50.8359 65.8011 50.8044 65.8497 51.2137 67.2147C51.7845 69.119 54.2002 70.482 56.1697 70.0111C59.1439 69.2999 60.5077 66.1038 58.9231 63.5582L58.3529 62.6423L58.9231 61.7246C60.4531 59.2619 59.2546 56.1992 56.4289 55.3515C55.4462 55.0567 55.2192 55.0471 54.311 55.263ZM65.1105 55.573C63.9522 55.9961 63.1635 56.6979 62.6162 57.7927C62.1274 58.7708 62.1163 58.8782 62.1182 62.632C62.1199 66.2631 62.1445 66.5238 62.5735 67.442C64.3098 71.1592 69.7317 70.7874 71.0745 66.859C71.3033 66.1896 71.3509 65.2356 71.3014 62.3169C71.2443 58.9646 71.2001 58.551 70.8241 57.8563C69.682 55.7466 67.272 54.7835 65.1105 55.573ZM68.2845 58.3123L69.03 59.0557V62.5336C69.03 66.2581 68.9188 66.7968 68.0315 67.3696C66.9192 68.0877 65.6503 67.8819 64.8372 66.8514C64.4433 66.3525 64.4208 66.1275 64.4208 62.6996C64.4208 60.5047 64.5015 58.9255 64.6252 58.695C64.9411 58.1065 65.9751 57.5707 66.7961 57.5699C67.4034 57.5693 67.6749 57.7047 68.2845 58.3123Z" fill="#255EA2"/>
</svg>
