<svg width="80" height="87" viewBox="0 0 80 87" fill="none" xmlns="http://www.w3.org/2000/svg">
<path fill-rule="evenodd" clip-rule="evenodd" d="M39.7489 0.0966782C35.4858 0.60458 32.6483 1.45727 29.3926 3.20898C24.796 5.68196 20.7119 9.89006 18.37 14.566C16.3605 18.5781 15.5617 21.9718 15.5636 26.4882C15.5651 30.1896 16.0882 32.9871 17.3926 36.2712L18.0698 37.9761L15.4387 40.5976C13.0884 42.9393 12.772 43.2 12.4742 43.0404C11.9867 42.779 10.3993 42.8222 9.69761 43.1159C8.9553 43.4266 8.44321 43.8871 7.87996 44.7507C7.52069 45.3016 7.45182 45.5933 7.45297 46.5576C7.45461 47.7232 7.65941 48.3272 8.2912 49.0292C10.0685 51.0048 13.2987 50.6257 14.5253 48.2976C14.9425 47.5059 15.0374 46.1842 14.7346 45.3862C14.569 44.9496 14.6508 44.8443 16.929 42.5619L19.2957 40.1912L20.119 41.4032C21.3964 43.2833 22.6209 44.6791 24.3312 46.2044C26.2448 47.9111 27.8815 49.0133 30.1736 50.1388L31.9125 50.9927L31.9942 52.4867C32.0557 53.6155 32.1714 54.1727 32.4672 54.7661C32.8928 55.6197 34.0814 56.7739 34.693 56.9277L35.0756 57.0239V63.7122V70.4006L35.455 70.7578C35.992 71.2631 36.7655 71.2296 37.1953 70.6821C37.5119 70.279 37.5352 70.0367 37.5352 67.1504V64.0516H41.8805H46.2258V72.6432V81.2347L45.8031 82.0844C44.5149 84.6744 41.16 85.3259 39.0666 83.3928C37.7643 82.1902 37.6385 81.7904 37.5396 78.5329C37.4563 75.7876 37.4391 75.6729 37.0661 75.3708C36.5605 74.9613 36.0453 74.974 35.4927 75.4094L35.0456 75.7618L35.1017 78.822L35.1576 81.8822L35.7198 83.028C37.4863 86.6281 41.6697 88.0337 45.1259 86.1884C46.1594 85.6365 47.5258 84.2596 48.0381 83.2537C48.8407 81.6776 48.8494 81.5238 48.8494 68.9036V57.0699L49.5947 56.6739C51.0752 55.8871 51.801 54.4462 51.801 52.2937V51.1006L53.5857 50.2027C56.5028 48.7351 58.0594 47.6015 60.5054 45.1636C63.7101 41.9699 65.6314 38.8858 67.0291 34.6917C68.0105 31.7471 68.2712 30.0016 68.2761 26.346C68.2799 23.4454 68.2451 22.9996 67.9847 22.6014C67.3828 21.681 66.4114 21.6472 65.8383 22.5265C65.6286 22.8485 65.6192 23.1663 65.7747 24.7004C66.0515 27.4316 65.615 31.0227 64.6503 33.9532C61.3976 43.8338 52.2609 50.4431 41.8546 50.4431C37.1299 50.4431 32.6939 49.078 28.5166 46.3389C26.6511 45.1155 23.3293 41.7747 22.0588 39.8441L21.1001 38.387L21.7538 37.732L22.4076 37.0771L22.6785 37.4643C22.8275 37.6773 23.2175 38.2582 23.5452 38.7551C26.7014 43.5409 31.8127 47.0024 37.5352 48.2298C39.2922 48.6066 44.2252 48.6486 45.9799 48.3017C48.937 47.7171 52.3008 46.2698 54.7456 44.5301C59.1762 41.3775 62.4783 36.2832 63.6283 30.8267C64.1286 28.4533 64.134 24.5675 63.6402 22.2528L63.2911 20.6165L64.474 19.3935C65.1245 18.7209 67.2064 16.6168 69.1003 14.7179L72.5437 11.2653L72.5906 13.0557C72.6316 14.6212 72.6816 14.8932 72.9881 15.2201C73.4548 15.7176 74.1692 15.7053 74.6828 15.1907C75.0845 14.7884 75.0853 14.7805 75.0853 11.3527C75.0853 8.12653 75.0647 7.89163 74.7454 7.48508L74.4056 7.05224H70.74H67.0743L66.7346 7.48508C66.3468 7.97885 66.3207 8.18829 66.5767 8.75122C66.8505 9.35324 67.398 9.51619 69.147 9.51619H70.7361L68.1984 12.0623C66.8027 13.4626 65.6192 14.6084 65.5684 14.6084C65.5177 14.6084 65.3062 14.2572 65.0985 13.8281C64.0039 11.5674 61.4864 8.41251 59.2139 6.45334C56.5541 4.16055 52.9352 2.16065 49.5873 1.13351C46.6901 0.24468 42.3483 -0.212958 39.7489 0.0966782ZM46.376 2.93515C53.1824 4.25681 58.9717 8.35682 62.6203 14.4392C63.778 16.3689 63.7914 16.4723 62.9861 17.279L62.3212 17.945L62.0735 17.3512C61.6653 16.3727 60.5047 14.4385 59.5692 13.1781C56.3253 8.80723 51.1093 5.5972 45.7339 4.66369C43.6862 4.30806 40.2265 4.30872 38.1542 4.66501C30.8372 5.92261 24.455 11.011 21.5516 17.9018C19.5736 22.596 19.2957 28.1951 20.8016 33.007C21.3227 34.6723 21.3119 34.7638 20.4991 35.5386L19.996 36.0181L19.6759 35.2922C19.1825 34.1738 18.5294 31.7796 18.2461 30.0511C17.8573 27.6801 18.0193 23.4684 18.5872 21.1789C19.5617 17.251 21.2616 13.8503 23.6794 10.9919C27.571 6.39141 33.2543 3.36683 39.4209 2.61434C41.0831 2.41148 44.4882 2.56851 46.376 2.93515ZM45.406 7.15869C50.2462 8.01368 54.7243 10.8027 57.7119 14.823C58.6384 16.0696 60.0499 18.6979 60.2433 19.5363C60.3273 19.9004 59.7577 20.5276 55.2026 25.0852L50.0669 30.2237L49.2123 30.0261C48.5461 29.872 48.1688 29.872 47.5024 30.0261L46.6473 30.2239L43.1471 26.7175L39.6469 23.2112L39.8397 22.4436C40.3692 20.337 38.9172 18.1213 36.7986 17.8031C35.011 17.5345 33.0467 18.7333 32.6132 20.3576C32.4285 21.0496 32.4668 22.4289 32.686 22.9858C32.8167 23.3174 23.5108 32.6563 23.2801 32.4252C22.9369 32.0814 22.4345 29.4057 22.3382 27.4109C22.1846 24.222 22.6604 21.6047 23.9178 18.7232C26.9357 11.8072 33.0913 7.49608 40.8967 6.8318C41.9118 6.7454 43.8703 6.88749 45.406 7.15869ZM37.0559 20.6735C37.3196 20.9376 37.5352 21.275 37.5352 21.4235C37.5352 21.777 37.2204 22.3596 36.8936 22.6109C36.1521 23.1813 34.9116 22.4905 34.9116 21.5074C34.9116 20.8742 35.5514 20.1933 36.1465 20.1933C36.4033 20.1933 36.7698 20.387 37.0559 20.6735ZM61.4654 24.7685C61.8257 28.0366 61.1536 31.6722 59.5819 34.9561C58.4795 37.2598 57.5329 38.612 55.8254 40.3226C51.4573 44.6983 45.4948 46.7563 39.407 45.9896C36.6273 45.6395 33.2041 44.3246 30.7809 42.676C28.5914 41.1865 25.9803 38.2968 24.8272 36.0868L24.3353 35.1441L29.4185 30.0447C33.5418 25.9082 34.5637 24.9642 34.8296 25.0455C35.5739 25.2727 36.714 25.3114 37.2682 25.1281L37.8594 24.9328L41.3929 28.5062C43.9409 31.083 44.8962 32.1515 44.8184 32.3375C44.5968 32.8662 44.5582 34.0989 44.7419 34.7822C44.9665 35.6178 45.8743 36.6814 46.741 37.1243C47.4186 37.4707 49.0178 37.5559 49.7321 37.2841C50.4518 37.0099 51.4214 35.9889 51.8008 35.1053C52.1596 34.2699 52.1957 33.1123 51.8874 32.3299C51.811 32.1359 53.024 30.8253 56.4062 27.4477C58.9491 24.9083 61.0832 22.8639 61.1488 22.9045C61.2144 22.945 61.3569 23.7839 61.4654 24.7685ZM49.3294 32.9459C49.5163 33.1839 49.6693 33.5568 49.6693 33.7746C49.6693 34.34 48.9744 34.977 48.3575 34.977C47.7406 34.977 47.0457 34.34 47.0457 33.7746C47.0457 33.0831 47.6385 32.5131 48.3575 32.5131C48.845 32.5131 49.0674 32.6119 49.3294 32.9459ZM12.1072 45.7584C12.7106 46.5267 12.4698 47.4374 11.573 47.779C10.721 48.1035 9.92193 47.4947 9.92193 46.5211C9.92193 45.3862 11.4079 44.8676 12.1072 45.7584ZM37.1253 52.545C40.5236 53.1598 44.3482 53.0773 47.7265 52.3166L49.3779 51.9448L49.3028 52.8515C49.2399 53.6135 49.1449 53.8325 48.7081 54.2234L48.1883 54.6886H42.0311C37.8194 54.6886 35.7607 54.6306 35.5157 54.5051C34.8575 54.1679 34.5912 53.6694 34.5873 52.7674L34.5837 51.9139L35.3625 52.1404C35.791 52.2649 36.5841 52.4471 37.1253 52.545ZM65.4928 57.0928C61.3279 59.2213 56.4308 61.9929 56.0315 62.4476C55.7872 62.726 55.5117 63.3119 55.4166 63.7561C55.1747 64.8862 55.188 75.5087 55.4325 76.4816C55.5461 76.9331 55.8292 77.4345 56.146 77.7453C56.4487 78.0423 58.824 79.3564 61.7534 80.8475C66.3899 83.2077 66.9109 83.4347 67.6924 83.4347C68.5791 83.4347 68.8338 83.3153 77.4308 78.869C79.0036 78.0556 79.5728 77.5114 79.8334 76.5716C79.936 76.2012 80.0016 73.5687 80 69.883C79.9967 62.2301 80.1169 62.6025 77.135 61.0106C76.3233 60.5773 75.032 59.8759 74.2654 59.4519C73.4989 59.028 71.8568 58.1523 70.6164 57.5061C67.8155 56.0471 67.5766 56.0277 65.4928 57.0928ZM46.2258 59.455V61.5931L41.9215 61.5494L37.6172 61.5055L37.5713 59.4112L37.5254 57.3168H41.8756H46.2258V59.455ZM13.5933 58.672C13.2952 58.8754 12.8969 59.2502 12.7082 59.5053C12.3697 59.9628 12.3645 60.1075 12.3205 70.4699L12.2761 80.9707H11.2957H10.3155V75.6135C10.3155 70.4101 10.3051 70.2379 9.95735 69.6178C9.39705 68.6193 8.60915 68.3225 6.51815 68.3225C5.03845 68.3225 4.69115 68.3758 4.08658 68.6962C2.78478 69.3857 2.77265 69.4493 2.77265 75.5885V80.9707H2.0592C1.06961 80.9707 0.391743 81.2419 0.171689 81.7259C-0.0890298 82.2991 -0.0642698 82.5063 0.325005 83.0019L0.66476 83.4347H16.0665C31.2496 83.4347 31.4727 83.4301 31.7961 83.1062C32.2326 82.6689 32.2295 81.7742 31.79 81.3758C31.5708 81.1771 31.1197 81.0486 30.4782 81.0021L29.5005 80.9313V72.42C29.5005 66.8058 29.4411 63.7513 29.326 63.4463C28.8346 62.1434 27.6182 61.6606 25.1271 61.7799C23.5557 61.8551 22.6649 62.2188 22.2425 62.9575C22.0913 63.2223 22.0188 65.5472 21.9576 72.1005L21.8757 80.8886L20.9443 80.9376L20.0131 80.9865L19.9604 77.3501C19.9086 73.756 19.9034 73.71 19.5208 73.3998C19.0007 72.9783 18.1569 72.9935 17.7607 73.4315C17.477 73.7451 17.4438 74.1081 17.3985 77.3806L17.3485 80.9842L16.0867 80.9364L14.8248 80.8886V70.8685V60.8485L16.0872 60.8007L17.3496 60.7529L17.399 64.7167C17.448 68.6567 17.4506 68.6824 17.8355 68.9943C18.33 69.3951 19.0266 69.3949 19.5208 68.994L19.908 68.6799V64.3406V60.0014L19.4485 59.398C18.718 58.4389 18.2994 58.3024 16.087 58.3024C14.333 58.3024 14.0805 58.3399 13.5933 58.672ZM70.658 60.3598C72.2363 61.2204 74.0624 62.1976 74.7164 62.5312C75.3703 62.865 75.9052 63.1822 75.9052 63.2359C75.9052 63.2898 74.0419 64.285 71.7648 65.4479L67.6245 67.5618L63.4643 65.4155L59.3041 63.2692L60.7587 62.4864C61.5588 62.056 62.8405 61.3538 63.6071 60.926C66.4347 59.3481 67.4644 58.8029 67.6245 58.7991C67.7147 58.797 69.0798 59.4992 70.658 60.3598ZM26.9602 64.5855C27.0095 64.7888 27.0294 68.5401 27.0043 72.9218L26.9589 80.8886L25.6881 80.9366L24.4173 80.9845V72.6002V64.2159H25.6439C26.7801 64.2159 26.8772 64.2431 26.9602 64.5855ZM66.3947 74.9758C66.3947 77.9117 66.3394 80.3106 66.2717 80.3066C66.204 80.3028 64.304 79.3477 62.0494 78.1838L57.95 76.0681L57.9067 70.7151L57.8636 65.3623L62.1291 67.5L66.3947 69.6377V74.9758ZM77.5425 70.5811C77.541 73.4494 77.4857 75.8761 77.4195 75.9734C77.2909 76.1621 69.2286 80.3137 68.9907 80.3137C68.9132 80.3137 68.8692 77.9299 68.893 75.0162L68.9363 69.7187L73.1176 67.5572C75.4174 66.3682 77.3542 65.3889 77.422 65.3807C77.4897 65.3725 77.5438 67.7127 77.5425 70.5811ZM7.81715 75.9196L7.86061 80.9707H6.54635H5.23226V75.9881C5.23226 73.2476 5.28441 70.9531 5.34803 70.8894C5.41182 70.8257 5.98359 70.7948 6.61883 70.8209L7.77387 70.8685L7.81715 75.9196Z" fill="#255EA2"/>
</svg>
