<svg width="78" height="88" viewBox="0 0 78 88" fill="none" xmlns="http://www.w3.org/2000/svg">
<path fill-rule="evenodd" clip-rule="evenodd" d="M30.4655 4.44075C25.9226 6.87971 22.1317 8.98972 22.0415 9.12978C21.9511 9.26984 21.876 10.3773 21.8744 11.5906C21.8729 12.804 21.809 13.77 21.7324 13.7371C21.6559 13.7043 20.6414 13.1745 19.4778 12.5595C18.3143 11.9446 17.2628 11.4416 17.1409 11.4416C17.0192 11.4416 13.2001 13.4335 8.65411 15.8684C2.79767 19.0049 0.333164 20.4148 0.197968 20.7064C-0.0669589 21.2772 -0.0655013 40.9616 0.199425 41.5326C0.317859 41.7877 1.0895 42.3184 2.20368 42.9112C3.20016 43.4414 4.01553 43.9252 4.01553 43.9866C4.01553 44.0479 3.25938 44.4978 2.33505 44.9865C1.41091 45.4752 0.508992 46.0159 0.330795 46.188C0.0279701 46.4808 0.0070164 47.1697 0.0070164 56.8416C0.0070164 64.8395 0.0585805 67.2482 0.234773 67.4736C0.46672 67.7703 16.3663 76.3497 16.9729 76.5055C17.1669 76.5554 18.2219 76.0987 19.5075 75.4088C20.7187 74.7586 21.7461 74.2266 21.7906 74.2266C21.8352 74.2266 21.8716 75.2328 21.8716 76.4626C21.8716 78.3547 21.9207 78.7466 22.1909 79.0115C22.5863 79.3992 38.6475 88 38.976 88C39.1068 88 42.9331 86.008 47.4791 83.5732C53.3356 80.4366 55.8001 79.0267 55.9353 78.7352C56.0404 78.5091 56.1262 77.402 56.1262 76.2753C56.1262 75.1486 56.1627 74.2266 56.2073 74.2266C56.2518 74.2266 57.263 74.7498 58.4543 75.3893C59.6455 76.0288 60.7175 76.552 60.8364 76.552C61.1589 76.552 77.1119 67.986 77.5354 67.5855C77.8903 67.2498 77.9009 66.9765 77.945 57.0945C77.9803 49.1872 77.9393 46.8495 77.7595 46.501C77.6203 46.2313 76.8255 45.6634 75.7574 45.07C74.7833 44.5289 73.9853 44.0401 73.9844 43.9837C73.9833 43.9274 74.7321 43.4933 75.6484 43.0189C78.2768 41.6585 77.9909 43.1067 77.9909 31.152C77.9909 23.1568 77.9391 20.7443 77.7631 20.5152C77.4956 20.1673 61.259 11.4421 60.8785 11.4417C60.7364 11.4417 59.6455 11.9648 58.4543 12.6042C57.263 13.2437 56.2518 13.7669 56.2073 13.7669C56.1627 13.7669 56.1262 12.7608 56.1262 11.531C56.1262 9.63886 56.0772 9.24694 55.807 8.98203C55.3805 8.56382 39.3337 -0.00822232 38.9928 5.91984e-06C38.8457 0.00358342 35.0087 2.00197 30.4655 4.44075ZM45.9812 5.98587C49.6543 7.9535 52.6603 9.60362 52.6612 9.65281C52.6638 9.81612 39.2775 16.8974 38.9869 16.8865C38.6808 16.8751 25.3376 9.80253 25.3394 9.65281C25.3414 9.49522 38.9 2.31429 39.1052 2.36223C39.2138 2.38763 42.308 4.01825 45.9812 5.98587ZM31.7563 15.5482L37.9057 18.8377V21.0931V23.3485L36.2453 24.237C35.3321 24.7257 34.5121 25.1523 34.4232 25.185C34.3343 25.218 34.2616 24.2472 34.2616 23.028C34.2616 21.5312 34.1876 20.7157 34.0339 20.5168C33.9087 20.3547 31.6333 19.0625 28.9777 17.6453L24.1492 15.0684L24.0971 13.236L24.045 11.4038L24.8259 11.8313C25.2554 12.0664 28.3742 13.739 31.7563 15.5482ZM53.81 15.0368C53.7312 15.1131 51.5347 16.312 48.9291 17.7011C46.3236 19.0901 44.0894 20.3581 43.964 20.5189C43.8103 20.7164 43.7363 21.5271 43.7363 23.0132C43.7363 24.2241 43.7013 25.2149 43.6587 25.2149C43.616 25.2149 42.7961 24.7992 41.8366 24.291L40.0922 23.367L40.0936 21.116L40.0953 18.8649L46.9719 15.1845L53.8487 11.504L53.9011 13.201C53.9301 14.1343 53.8891 14.9606 53.81 15.0368ZM24.115 17.4339C27.7889 19.4015 30.7957 21.0516 30.7966 21.1008C30.7992 21.2641 17.4129 28.3454 17.1223 28.3345C16.8156 28.3231 3.47238 21.2502 3.47566 21.1008C3.47967 20.9216 16.8694 13.7973 17.1478 13.8265C17.3056 13.843 20.4408 15.4662 24.115 17.4339ZM67.8442 17.4339C71.5182 19.4015 74.525 21.0516 74.5259 21.1008C74.5284 21.2641 61.1422 28.3454 60.8516 28.3345C60.5449 28.3231 47.2016 21.2502 47.2049 21.1008C47.2089 20.9216 60.5987 13.7973 60.8771 13.8265C61.0349 13.843 64.1701 15.4662 67.8442 17.4339ZM9.89165 26.9962L16.0411 30.2857V39.1028V47.9199L14.8028 47.2552C14.1217 46.8895 11.0066 45.2221 7.88029 43.5496L2.19621 40.5087L2.19476 31.6839L2.19348 22.859L2.96785 23.2829C3.39367 23.516 6.50956 25.187 9.89165 26.9962ZM31.8543 26.5606C31.7253 26.6758 29.5288 27.8759 26.9734 29.2273C24.418 30.5787 22.2248 31.8138 22.0994 31.9719C21.9263 32.1903 21.8709 33.9149 21.8689 39.1566L21.866 46.0538L20.0469 47.0015L18.2275 47.949L18.229 39.131L18.2306 30.3129L25.1073 26.6325L31.984 22.952L32.0365 24.6516C32.0741 25.8662 32.0221 26.4109 31.8543 26.5606ZM53.6209 26.9962L59.7703 30.2857V39.1103V47.9351L58.7227 47.3711C58.1464 47.0607 57.3264 46.6139 56.9006 46.3781L56.1262 45.9494V39.1044C56.1262 33.9048 56.0716 32.1885 55.8985 31.9648C55.7733 31.8027 53.4979 30.5105 50.8423 29.0933L46.0138 26.5164L45.9617 24.684L45.9096 22.8518L46.6906 23.2793C47.12 23.5144 50.2388 25.187 53.6209 26.9962ZM75.8044 31.7106V40.5314L70.3838 43.4278C67.4024 45.0207 64.2868 46.6905 63.46 47.1385L61.9568 47.9531L61.9583 39.133L61.9599 30.3129L68.8365 26.615C72.6187 24.5812 75.7339 22.911 75.7589 22.9033C75.7838 22.8958 75.8044 26.859 75.8044 31.7106ZM45.9796 28.8819C49.6536 30.8495 52.6603 32.4996 52.6612 32.5488C52.6638 32.7105 39.279 39.7934 38.9906 39.783C38.687 39.7719 25.3377 32.6973 25.3407 32.5488C25.3439 32.3697 38.7338 25.2453 39.0124 25.2745C39.1702 25.2909 42.3054 26.9142 45.9796 28.8819ZM31.7563 38.4441L37.9057 41.7337V50.5508V59.3679L36.6645 58.7032C35.9818 58.3375 32.8672 56.6701 29.7431 54.9976L24.0629 51.9567L24.0605 43.1319L24.0581 34.307L24.8325 34.7309C25.2585 34.964 28.3742 36.635 31.7563 38.4441ZM53.9398 43.1623V51.9873L47.8815 55.2235C44.5493 57.0035 41.4338 58.6736 40.9577 58.9352L40.0922 59.4106L40.0936 50.5856L40.0953 41.7608L46.9719 38.063C50.7541 36.0292 53.8693 34.359 53.8942 34.3513C53.9192 34.3438 53.9398 38.3087 53.9398 43.1623ZM11.7447 48.0215C14.588 49.5464 17.0152 50.794 17.1387 50.794C17.262 50.794 18.3321 50.2708 19.5165 49.6313C20.7008 48.9919 21.7153 48.4687 21.7707 48.4687C21.8263 48.4687 21.8716 49.1915 21.8716 50.075V51.6812L20.973 52.185C20.4787 52.4622 19.3924 53.0353 18.5588 53.4585L17.0432 54.2282L10.2599 50.5881C6.52906 48.5862 3.47511 46.908 3.47329 46.8588C3.46946 46.7541 6.22587 45.2596 6.43413 45.2532C6.51175 45.2509 8.90155 46.4966 11.7447 48.0215ZM73.0837 46.0091C73.8758 46.4272 74.5244 46.8096 74.525 46.8588C74.5257 46.908 71.4727 48.5864 67.7406 50.5883L60.9547 54.2284L59.4391 53.4587C58.6055 53.0353 57.5192 52.4622 57.0249 52.185L56.1262 51.6812V50.075C56.1262 49.1915 56.1716 48.4687 56.2272 48.4687C56.2826 48.4687 57.2971 48.9919 58.4814 49.6313C59.6658 50.2708 60.7479 50.7913 60.8858 50.7881C61.0239 50.7847 63.4327 49.5414 66.2386 48.0249C69.0446 46.5085 71.4085 45.2636 71.492 45.2584C71.5752 45.2532 72.2917 45.5911 73.0837 46.0091ZM10.7165 53.2042L16.0411 56.0615V64.8779V73.6945L14.6199 72.9319C13.838 72.5126 10.7223 70.8441 7.69608 69.224L2.19348 66.2787V57.4557V48.6329L3.7927 49.4899C4.6722 49.9612 7.78791 51.6326 10.7165 53.2042ZM75.8044 57.4618V66.276L70.4798 69.1333C67.5512 70.7049 64.4355 72.3764 63.556 72.8477L61.9568 73.7047L61.957 64.8878L61.9574 56.0708L68.8352 52.3685C72.6182 50.332 75.7339 48.6618 75.7589 48.6568C75.7838 48.6516 75.8044 52.6139 75.8044 57.4618ZM24.3241 54.493C25.18 54.9532 25.8802 55.3786 25.8802 55.438C25.8802 55.4974 25.124 55.9458 24.1997 56.4345C23.2755 56.9232 22.3736 57.4639 22.1954 57.636C21.8964 57.9252 21.8716 58.4724 21.8716 64.8139C21.8716 70.0946 21.8192 71.7183 21.6439 71.8508C21.5187 71.9454 20.6988 72.4023 19.8218 72.8659L18.2275 73.7088L18.2292 64.8897L18.231 56.0708L20.4612 54.8661C21.688 54.2034 22.7089 53.6601 22.7298 53.6587C22.751 53.6573 23.4685 54.0327 24.3241 54.493ZM57.5196 54.8579L59.7703 56.0596V64.8836V73.7075L58.5405 73.0457C57.8641 72.6815 57.0442 72.2284 56.7184 72.0385L56.1262 71.6932V64.821C56.1262 56.8534 56.3811 57.7671 53.7838 56.4227C52.8675 55.9483 52.1177 55.512 52.1177 55.453C52.1177 55.3668 54.931 53.7415 55.1964 53.6743C55.2364 53.6642 56.2817 54.1968 57.5196 54.8579ZM33.6093 59.4695C36.4526 60.9944 38.878 62.242 38.9989 62.242C39.1199 62.242 41.5666 60.9829 44.4358 59.4441L49.6525 56.6461L51.1573 57.4317C51.9851 57.8639 52.6609 58.2576 52.6592 58.3068C52.6538 58.4713 39.2763 65.5514 38.9906 65.541C38.6896 65.5299 25.3403 58.4572 25.3368 58.3068C25.3343 58.202 28.0912 56.7076 28.2988 56.7012C28.3764 56.6989 30.7662 57.9445 33.6093 59.4695ZM32.5811 64.6522L37.9057 67.5095V76.3259V85.1425L36.4823 84.3799C35.6996 83.9606 32.5839 82.2898 29.5585 80.667L24.0581 77.7163V68.8987V60.0809L25.6573 60.9378C26.5368 61.4092 29.6525 63.0806 32.5811 64.6522ZM53.9398 68.9098V77.724L48.6152 80.5813C45.6866 82.1529 42.5709 83.8243 41.6914 84.2957L40.0922 85.1527L40.0924 76.3357L40.0927 67.5188L46.9706 63.8165C50.7536 61.78 53.8693 60.1098 53.8942 60.1048C53.9192 60.0996 53.9398 64.0619 53.9398 68.9098Z" fill="#255EA2"/>
</svg>
