<svg width="71" height="71" viewBox="0 0 71 71" fill="none" xmlns="http://www.w3.org/2000/svg">
<path fill-rule="evenodd" clip-rule="evenodd" d="M11.6864 0.836826C10.2673 2.04689 10.2303 4.47773 11.6101 5.85645C12.8903 7.13567 15.2083 7.03037 16.522 5.63335C17.5307 4.56072 17.7813 4.51788 23.0746 4.51788H28.5786V6.97192V9.42596H14.2893H0V33.0673V56.709L13.5079 56.8268L27.0157 56.9451L27.1452 60.6261L27.2752 64.3072H20.782H14.2893V67.6536V71H35.5H56.7107V67.6536V64.3072H50.218H43.7248L43.8548 60.6261L43.9843 56.9451L57.4921 56.8268L71 56.709V33.0673V9.42596H56.7107H42.4214V6.97192V4.51788H47.9254C53.2187 4.51788 53.4693 4.56072 54.478 5.63335C55.7917 7.03037 58.1097 7.13567 59.3899 5.85645C60.2745 4.97255 60.4728 4.23723 60.2928 2.51003C60.0258 -0.0537668 56.2257 -0.911341 54.3056 1.15897C53.321 2.22046 53.0424 2.26641 46.8475 2.38599L40.4119 2.51003L40.2816 5.968L40.1512 9.42596H35.4812H30.8113V6.56232C30.8113 2.05314 31.1833 2.28694 24.0051 2.28694C17.8969 2.28694 17.7152 2.25928 16.706 1.17147C15.461 -0.171115 13.0564 -0.331296 11.6864 0.836826ZM14.9591 3.40241C14.9591 4.73116 13.2158 4.59864 13.0256 3.25517C12.9028 2.39001 13.0528 2.24009 13.9187 2.36279C14.6122 2.46095 14.9591 2.80764 14.9591 3.40241ZM58.0503 3.19315C58.0503 4.24571 56.8692 4.85475 56.1748 4.16093C55.4805 3.46711 56.09 2.28694 57.1434 2.28694C57.7574 2.28694 58.0503 2.57964 58.0503 3.19315ZM28.5786 17.4672V23.2779L26.725 25.2871L24.8719 27.2958L25.8802 28.3685L26.8885 29.4406L25.389 29.5843C24.1284 29.7048 23.8676 29.923 23.7488 30.9546L23.6073 32.1816H17.6339C12.2419 32.1816 11.602 32.0977 11.0581 31.3218C10.0409 29.8708 8.28333 29.2947 6.77626 29.9185C4.39709 30.9032 3.77908 33.7673 5.56167 35.5481C7.02007 37.0058 9.06389 36.9973 10.5343 35.528C11.6141 34.4491 11.8476 34.4125 17.6276 34.4125C23.4858 34.4125 23.6073 34.4326 23.747 35.4164C23.8551 36.1741 24.2588 36.4753 25.3925 36.6435L26.8952 36.8666L25.9507 37.7165C24.6491 38.8882 24.7366 39.2354 26.8853 41.423C28.868 43.4416 29.8973 43.7678 30.8113 42.667C31.6678 41.6359 32.0813 41.8625 32.2344 43.4478L32.3742 44.898H35.5H38.6258L38.7656 43.4478C38.9187 41.8625 39.3322 41.6359 40.1887 42.667C40.4946 43.0351 41.0961 43.3363 41.5261 43.3363C42.2955 43.3363 45.9937 39.7083 45.9937 38.9534C45.9937 38.7406 45.5686 38.1842 45.0493 37.7165L44.1048 36.8666L45.6075 36.6435C46.7412 36.4753 47.1449 36.1741 47.253 35.4164C47.3927 34.4326 47.5142 34.4125 53.3724 34.4125C59.1524 34.4125 59.3859 34.4491 60.4657 35.528C62.4563 37.5171 65.7197 36.6586 66.3055 33.9918C66.6458 32.4444 66.0313 31.1188 64.5127 30.1247C63.1386 29.2247 61.4842 29.5897 60.1892 31.0777C59.2573 32.1486 59.0519 32.1816 53.2813 32.1816H47.3333V31.1139C47.3333 30.0086 46.5979 29.5044 44.9863 29.5044C44.066 29.5044 44.0678 29.4875 45.0899 28.4001L46.1281 27.2958L44.275 25.2871L42.4214 23.2779V17.4672V11.6569H55.5943H68.7673V30.8457V50.0349L35.3884 49.9203L2.00943 49.806L1.89289 30.7315L1.77679 11.6569H15.1775H28.5786V17.4672ZM40.0896 17.7554C40.0002 22.1464 39.8091 23.9057 39.4072 24.0391C39.0411 24.1609 38.8491 23.7508 38.8491 22.8487V21.4731H35.5H32.1509V22.8487C32.1509 23.7508 31.9589 24.1609 31.5928 24.0391C31.1909 23.9057 30.9998 22.1464 30.9105 17.7554L30.7863 11.6569H35.5H40.2137L40.0896 17.7554ZM4.67662 14.7999C4.00011 15.893 5.47013 16.565 8.53875 16.565H11.6101V21.3838C11.6101 24.537 11.7954 26.3878 12.1459 26.7381C12.7045 27.2963 18.9829 27.5006 20.281 27.0027C20.6695 26.8536 20.9874 26.3602 20.9874 25.9059C20.9874 25.1845 20.5498 25.0635 17.5267 24.9498L14.066 24.8195L13.9401 19.5767L13.8146 14.334H9.38942C6.79769 14.334 4.84542 14.5268 4.67662 14.7999ZM57.0599 19.5767L56.934 24.8195L53.4447 24.9502C50.1345 25.0742 49.9626 25.1314 50.0956 26.0657C50.2265 26.9848 50.4989 27.0589 54.1873 27.1798C56.7165 27.2628 58.3638 27.1227 58.7643 26.7907C59.2305 26.4039 59.3899 25.0359 59.3899 21.4186V16.565H62.4613C64.6051 16.565 65.6951 16.3687 66.072 15.9153C67.0923 14.6865 66.0979 14.334 61.6106 14.334H57.1854L57.0599 19.5767ZM36.6164 24.5709C36.6164 25.4941 38.1717 26.8273 39.2483 26.8273C39.6042 26.8273 40.2298 26.5244 40.6392 26.1545C41.3068 25.5508 41.4671 25.574 42.195 26.3776C42.9644 27.2271 42.9666 27.3177 42.2347 28.1253C41.5207 28.9141 41.5162 29.0792 42.1771 30.3562C42.6831 31.3338 43.2127 31.7354 43.9959 31.7354C44.9256 31.7354 45.1006 31.9473 45.1006 33.074C45.1006 34.1997 44.9256 34.4125 43.9986 34.4125C43.2497 34.4125 42.6902 34.8061 42.253 35.6395C41.6846 36.7238 41.694 37.0089 42.3348 38.0931C43.0068 39.23 43.005 39.375 42.308 40.0711C41.6033 40.7756 41.5015 40.7729 40.6812 40.0314C39.2474 38.7348 36.6164 39.8984 36.6164 41.8291C36.6164 42.6634 36.3779 42.8901 35.5 42.8901C34.6221 42.8901 34.3836 42.6634 34.3836 41.8291C34.3836 39.9885 31.4954 38.6286 30.3965 39.952C29.9683 40.4673 29.6115 40.5266 28.9783 40.188C27.9695 39.6485 27.9039 38.9748 28.7662 38.0173C29.7637 36.909 28.5666 34.4125 27.0372 34.4125C26.0708 34.4125 25.8994 34.2108 25.8994 33.074C25.8994 31.9076 26.0592 31.7354 27.1412 31.7354C28.8028 31.7354 29.7294 29.6245 28.7077 28.1672C28.1115 27.3163 28.124 27.1294 28.83 26.3503C29.5351 25.5713 29.6936 25.5512 30.3608 26.1545C30.7702 26.5244 31.3958 26.8273 31.7517 26.8273C32.8283 26.8273 34.3836 25.4941 34.3836 24.5709C34.3836 23.9436 34.6922 23.704 35.5 23.704C36.3078 23.704 36.6164 23.9436 36.6164 24.5709ZM32.9324 29.094C31.8611 29.7173 30.8113 31.8675 30.8113 33.4376C30.8113 35.976 33.9608 38.4086 36.4418 37.7866C37.0919 37.6237 38.2011 36.9134 38.9062 36.2089C40.8554 34.2613 40.5633 31.2843 38.2386 29.4027C37.1826 28.5478 34.1715 28.3729 32.9324 29.094ZM37.2545 31.544C37.6403 31.9299 37.956 32.6327 37.956 33.1056C37.956 34.1274 36.4485 35.7511 35.5 35.7511C34.5515 35.7511 33.044 34.1274 33.044 33.1056C33.044 31.9317 34.2256 30.843 35.5 30.843C36.0787 30.843 36.8682 31.1585 37.2545 31.544ZM8.94957 32.427C9.4238 32.9986 9.39477 33.248 8.78078 33.861C8.08775 34.554 7.98772 34.554 7.29469 33.861C6.6807 33.248 6.65167 32.9986 7.1259 32.427C7.44205 32.0468 7.85242 31.7354 8.03774 31.7354C8.22305 31.7354 8.63342 32.0468 8.94957 32.427ZM63.8741 32.427C64.3483 32.9986 64.3193 33.248 63.7053 33.861C63.0123 34.554 62.9123 34.554 62.2192 33.861C61.6052 33.248 61.5762 32.9986 62.0504 32.427C62.3666 32.0468 62.777 31.7354 62.9623 31.7354C63.1476 31.7354 63.558 32.0468 63.8741 32.427ZM68.7673 53.3755V54.491H35.2767H1.78616V53.3755V52.2601H35.2767H68.7673V53.3755ZM41.4345 60.6261L41.5645 64.3072H35.5179H29.4717V60.8122C29.4717 58.8895 29.6115 57.1775 29.782 57.0066C29.9526 56.8362 32.6153 56.7523 35.6987 56.821L41.305 56.9451L41.4345 60.6261ZM54.478 67.6536V68.7691H35.5H16.522V67.6536V66.5381H35.5H54.478V67.6536Z" fill="#255EA2"/>
</svg>
