<svg width="78" height="78" viewBox="0 0 78 78" fill="none" xmlns="http://www.w3.org/2000/svg">
<path fill-rule="evenodd" clip-rule="evenodd" d="M32.235 0.453073C31.9047 0.783411 31.8252 1.51709 31.8252 4.23357V7.60448H24.6696C18.5127 7.60448 17.4572 7.66157 17.1043 8.01407C16.7591 8.35927 16.6944 9.24391 16.6944 13.6196C16.6944 16.6219 16.5927 18.8156 16.4537 18.8156C16.3211 18.8156 15.8633 19.1094 15.436 19.4687L14.6594 20.1218L14.5683 17.8392C14.4457 14.7757 13.7476 13.8665 10.6975 12.7976L9.52039 12.3851L9.4403 10.8484C9.35108 9.13467 9.16403 8.91774 7.7694 8.91201C5.18909 8.90158 1.88146 11.1417 0.760998 13.6588C0.24238 14.8237 0.132812 15.5667 0.0475061 18.497C-0.0607569 22.222 0.0762022 22.7265 1.19509 22.7265C2.13268 22.7265 2.34633 21.9785 2.34633 18.6941C2.34633 14.5799 3.06113 13.0223 5.53161 11.7521C7.46365 10.759 7.30295 8.8218 7.30269 33.0903L7.30217 54.9259L5.79301 55.3691C4.96291 55.6129 3.84793 56.108 3.31496 56.4694L2.34633 57.1264V42.2915C2.34633 29.1531 2.29938 27.4099 1.9365 27.0469C1.41605 26.5271 0.928741 26.5271 0.408296 27.0469C0.043593 27.4117 -0.00127746 29.4547 2.69087e-05 45.6235C0.000809533 57.9649 0.0928983 64.125 0.286728 64.8334C0.713519 66.3918 2.71521 68.2184 4.59481 68.7646C6.59233 69.345 9.62761 69.1742 11.1404 68.3965C11.7446 68.086 12.3021 67.8318 12.3796 67.8318C12.4571 67.8318 12.5204 69.0751 12.5204 70.5952C12.5204 73.7536 12.8189 74.6531 14.297 75.9502C15.8672 77.3281 17.3362 77.8467 19.6945 77.8556C22.8245 77.8676 25.3096 76.6218 26.321 74.5334C26.844 73.454 26.8686 73.0082 26.8686 64.6207V55.8384H43.2254C52.2279 55.8384 59.4709 55.938 59.3344 56.0601C59.1982 56.1821 56.3362 58.6165 52.9748 61.4701C34.0726 77.5161 35.4892 76.2688 35.4813 76.8734C35.4793 77.0424 35.6619 77.3649 35.8873 77.5904C36.252 77.9546 38.2396 78 53.8354 78C67.1286 78 71.4494 77.9244 71.6868 77.6871C71.8974 77.4767 71.9999 76.292 71.9999 74.0688C71.9999 70.3668 71.7904 69.8336 70.5573 70.3952C69.9377 70.6773 69.9129 70.7839 69.9129 73.1711V75.6535H54.8547C40.0751 75.6535 39.8059 75.6444 40.3109 75.1602C40.5937 74.8888 42.9384 72.8783 45.5211 70.6924C48.1038 68.5065 53.6213 63.8174 57.7822 60.2723C61.9432 56.7273 66.3454 52.9843 67.565 51.955L69.7824 50.0835L69.8516 57.6971C69.8996 62.9547 70.0136 65.4229 70.2207 65.6722C70.3856 65.8706 70.8239 65.9978 71.1948 65.9548L71.8694 65.8763L71.9404 60.8574L72.0111 55.8384H74.5956C76.5973 55.8384 77.2724 55.7461 77.5902 55.4288C77.9567 55.0623 78 52.5533 78 31.7215C78 10.8896 77.9567 8.38065 77.5902 8.01407C77.2252 7.64958 75.1977 7.60448 59.1985 7.60448H41.2167V4.23357C41.2167 1.51709 41.1371 0.783411 40.8068 0.453073C40.2021 -0.151024 32.8397 -0.151024 32.235 0.453073ZM39.0665 16.9254L38.9992 31.4607L36.5861 31.5358L34.173 31.6107V30.2046C34.173 28.8418 34.1991 28.7912 35.0209 28.5565C36.4341 28.1532 36.2486 26.3766 34.7934 26.3766C34.2098 26.3766 34.173 26.2848 34.173 24.8266V23.2766L35.3856 23.1971C36.7703 23.1064 37.3714 22.5252 36.8841 21.7488C36.6934 21.4445 36.1938 21.2659 35.3856 21.213L34.173 21.1335V19.5834C34.173 18.1252 34.2098 18.0334 34.7934 18.0334C35.5732 18.0334 36.0647 17.4598 35.954 16.679C35.888 16.2136 35.6775 16.0595 35.0209 15.9964L34.173 15.9145V14.3669V12.819H35.2948C36.5501 12.819 37.0427 12.4764 37.0427 11.6027C37.0427 10.8815 36.3409 10.4724 35.1033 10.4724H34.173V9.09243C34.173 7.76039 34.2025 7.70355 35.0209 7.4629C36.4351 7.04679 36.2504 5.25796 34.7934 5.25796C34.2153 5.25796 34.173 5.15993 34.173 3.82398V2.38999H36.6534H39.1341L39.0665 16.9254ZM31.8252 21.5011C31.8252 30.1368 31.9042 33.1302 32.1382 33.364C32.5765 33.802 40.4654 33.802 40.9036 33.364C41.1376 33.1302 41.2167 30.1368 41.2167 21.5011V9.95099H43.9559H46.695V31.7215V53.4919H36.7818H26.8686V38.8922V24.2924L25.9291 23.2531C25.2976 22.5544 24.4852 22.0301 23.4508 21.6531L21.9119 21.0923V19.7336C21.9119 18.0076 21.3304 17.3689 19.9614 17.591L19.0423 17.7399V13.8454V9.95099H25.4337H31.8252V21.5011ZM75.6521 23.7694V37.5878H62.3475H49.0429V23.7694V9.95099H62.3475H75.6521V23.7694ZM56.2942 17.7195L53.2169 20.795V26.2103C53.2169 29.4443 53.3257 31.8286 53.4869 32.1298C53.7418 32.6056 54.0911 32.634 59.6871 32.634H65.6173L68.4173 29.827L71.2173 27.0198V21.1019C71.2173 15.5177 71.1888 15.1686 70.7127 14.9139C70.4114 14.7528 68.0257 14.644 64.7898 14.644H59.3715L56.2942 17.7195ZM11.2427 15.5018L12.1291 16.0989L12.1959 37.9525C12.2593 58.7077 12.2395 59.7965 11.8046 59.6109C10.8874 59.2193 8.7362 58.7064 8.01149 58.7064C7.35461 58.7064 7.27791 58.623 7.35095 57.9894C7.41278 57.451 7.59592 57.25 8.08558 57.1822C8.44428 57.1327 8.88464 56.9715 9.06386 56.8245C9.31978 56.6144 9.38995 52.0749 9.38995 35.7309C9.38995 15.633 9.40691 14.9048 9.87309 14.9048C10.1389 14.9048 10.7551 15.1733 11.2427 15.5018ZM65.8693 18.5549L64.3205 20.1192H60.8556C58.9501 20.1192 57.3909 20.035 57.3909 19.9318C57.3909 19.8288 58.0032 19.1248 58.7516 18.3674L60.1123 16.9905H63.7654H67.4181L65.8693 18.5549ZM69.1303 22.3925V25.9691L67.7695 27.3462C67.0211 28.1034 66.3167 28.7231 66.2043 28.7231C66.0919 28.7231 65.9998 27.1322 65.9998 25.1877V21.6523L67.342 20.234C68.0802 19.4539 68.7846 18.8156 68.9072 18.8156C69.0298 18.8156 69.1303 20.4251 69.1303 22.3925ZM19.5641 41.8279V63.7976L18.208 64.1193C17.4622 64.2966 16.4083 64.7349 15.8659 65.0936C15.3233 65.4524 14.8182 65.746 14.7434 65.746C14.6688 65.746 14.6074 56.5789 14.6074 45.3745C14.6074 30.6687 14.6917 24.7223 14.9103 23.9931C15.3147 22.6438 16.8121 20.9416 18.1146 20.3502C18.6967 20.0861 19.2609 19.8674 19.3684 19.8642C19.4759 19.8611 19.5641 29.7449 19.5641 41.8279ZM63.9128 26.3766V30.5482H59.7388H55.5648V26.3766V22.205H59.7388H63.9128V26.3766ZM22.9567 23.7694C23.0775 23.7694 23.5374 24.0731 23.9788 24.4444L24.7816 25.1194V46.8667C24.7816 58.8276 24.7523 68.6139 24.7163 68.6137C24.6803 68.6137 24.0336 68.379 23.2787 68.0922C22.5239 67.8057 21.4379 67.571 20.8656 67.571C19.8831 67.571 19.8249 67.5272 19.8249 66.7889C19.8249 66.2132 19.9473 66.0067 20.2885 66.0067C20.5436 66.0067 21.0132 65.8239 21.332 65.6007L21.9119 65.1951V44.3238C21.9119 25.3994 21.9505 23.4677 22.3246 23.6111C22.5516 23.6982 22.836 23.7694 22.9567 23.7694ZM75.6521 46.7131V53.4919H73.826H71.9999V50.2647C71.9999 46.9279 71.804 46.2847 70.8515 46.4959C70.6363 46.5436 68.6351 48.1374 66.4039 50.0373L62.3475 53.4919H55.6952H49.0429V46.7131V39.9343H62.3475H75.6521V46.7131ZM55.3561 43.6366C54.8769 44.1155 54.9836 45.0987 55.5476 45.4004C55.8437 45.5586 58.0611 45.6702 60.9127 45.6702C63.7643 45.6702 65.9818 45.5586 66.2779 45.4004C66.8419 45.0987 66.9486 44.1155 66.4693 43.6366C66.0269 43.1944 55.7985 43.1944 55.3561 43.6366ZM55.217 48.1906C54.9335 48.4738 55.0185 49.4523 55.3561 49.7896C55.7004 50.1338 59.9295 50.2284 60.417 49.9031C60.8569 49.6095 60.9983 48.9791 60.7379 48.473C60.5384 48.0856 60.1181 48.0167 57.9468 48.0167C56.5412 48.0167 55.3125 48.0949 55.217 48.1906ZM5.66857 60.727C5.90754 60.9082 6.83234 61.0529 7.75244 61.0529C10.5308 61.0529 12.2596 62.0463 12.2596 63.6424C12.2596 64.8287 11.7185 65.6122 10.4541 66.257C8.02505 67.4954 4.67751 67.0777 3.15661 65.3465C2.4499 64.5422 2.34712 64.2335 2.35207 62.9341C2.35912 61.1129 3.00269 59.6004 4.20063 58.5904L5.08552 57.8439L5.16195 59.1225C5.21048 59.9329 5.39596 60.5205 5.66857 60.727ZM64.4345 59.0021C64.0758 59.2985 60.818 62.0653 57.1952 65.1505C50.3622 70.9696 49.843 71.5758 51.1127 72.2549C51.425 72.4218 54.304 72.5248 58.6595 72.5248C64.7137 72.5248 65.7592 72.4674 66.1117 72.1152C66.4618 71.765 66.5215 70.7795 66.5215 65.3455C66.5215 59.3243 66.4946 58.971 66.017 58.7155C65.3353 58.351 65.1905 58.3771 64.4345 59.0021ZM64.4345 66.137V70.1783H59.6141H54.7939L55.8966 69.1857C57.7773 67.4931 64.1841 62.0958 64.3127 62.0958C64.3797 62.0958 64.4345 63.9144 64.4345 66.137ZM17.4771 67.7186C17.4771 69.2749 17.8363 69.6568 19.2995 69.6568C21.4064 69.6568 23.244 70.1658 24.0519 70.9735C24.9055 71.8263 24.971 72.6022 24.2843 73.7275C22.6711 76.3718 16.9879 76.2886 15.1965 73.5943C14.5412 72.6087 14.4679 71.7452 14.8955 70.0482C15.1702 68.9583 16.7284 66.7889 17.2365 66.7889C17.3688 66.7889 17.4771 67.2073 17.4771 67.7186Z" fill="#255EA2"/>
</svg>
