<svg width="48" height="37" viewBox="0 0 48 37" fill="none" xmlns="http://www.w3.org/2000/svg">
<path fill-rule="evenodd" clip-rule="evenodd" d="M12.3189 0.149787C12.0293 0.249667 11.7911 0.405371 11.57 0.639275C10.9544 1.29066 11.0008 -0.0512102 11.0008 17.0912C11.0008 25.4974 11.0269 32.362 11.0589 32.3459C11.0908 32.3298 11.361 32.1962 11.6592 32.0491L12.2013 31.7816L24.6073 31.7429L37.0132 31.7042L37.2131 31.5165L37.413 31.3287V26.6026V21.8766L34.9925 24.2823C33.0082 26.2545 32.4953 26.7234 32.146 26.885C31.8821 27.0071 31.0274 27.221 29.8998 27.4473C28.1238 27.8038 28.0543 27.8115 27.034 27.7695C26.4589 27.7458 25.8141 27.6773 25.6011 27.6172C25.1703 27.4954 24.4612 27.1541 24.1757 26.931L23.9897 26.7855L23.7336 27.315C22.9784 28.8756 21.0457 29.5344 19.5081 28.7555C19.0529 28.525 18.5782 28.11 18.3531 27.7458L18.1889 27.4802L17.8768 27.762C17.3778 28.2126 16.9476 28.3724 16.229 28.3737C15.6857 28.3747 15.5583 28.3465 15.1945 28.1452C14.2686 27.6325 14.036 26.841 14.7065 26.484C14.9629 26.3475 15.2512 26.4415 15.5937 26.7734C15.8396 27.0117 15.9424 27.0586 16.219 27.0586C16.9496 27.0586 17.4637 26.4296 17.5736 25.4013C17.6456 24.7277 17.8443 24.4648 18.2816 24.4648C18.7168 24.4648 18.9022 24.7138 18.9834 25.4073C19.0608 26.0689 19.1317 26.3296 19.3485 26.7511C19.6761 27.3881 20.2227 27.7167 20.9544 27.7167C21.4889 27.7167 21.8849 27.5266 22.258 27.091C22.5935 26.6991 22.7565 26.2476 22.8567 25.4327C22.9444 24.7197 23.1347 24.463 23.5722 24.4673C23.8768 24.4703 24.026 24.579 24.2065 24.9294C24.4409 25.3845 24.7052 25.6844 25.0842 25.9249C25.4988 26.188 26.1601 26.4005 26.5642 26.4005H26.8408L27.1994 24.6198C27.4428 23.4108 27.6264 22.6961 27.7715 22.3938C27.9542 22.0131 28.669 21.263 32.6991 17.2235L37.413 12.4985V6.48696C37.413 3.18063 37.3913 0.418998 37.3649 0.350089C37.2248 -0.0146656 37.6801 -0.00196767 24.811 0.000742245C13.1771 0.00314245 12.7283 0.00848479 12.3189 0.149787ZM31.0328 5.47283C31.448 5.69481 31.9396 6.25708 32.0549 6.64189C32.1159 6.84529 32.146 7.70797 32.146 9.25061C32.146 10.7932 32.1159 11.6559 32.0549 11.8593C31.9396 12.2441 31.448 12.8064 31.0328 13.0284L30.7131 13.1993L24.4071 13.2205C17.1929 13.2446 17.5333 13.2717 16.885 12.6236C16.3045 12.0434 16.2677 11.8425 16.2677 9.25061C16.2677 6.65892 16.3045 6.45785 16.8847 5.87785C17.523 5.23986 17.1456 5.26967 24.3618 5.28678L30.7131 5.30187L31.0328 5.47283ZM17.8303 6.836C17.6653 7.0116 17.6619 7.06138 17.6619 9.27492C17.6619 11.84 17.6494 11.7885 18.2954 11.8814C18.4795 11.9079 21.2909 11.9191 24.5428 11.9063L30.4555 11.8831L30.6424 11.6658L30.8293 11.4486V9.24279V7.03692L30.6391 6.84691L30.4491 6.65683H24.2239H17.9988L17.8303 6.836ZM46.282 7.43063L45.5109 8.20435L45.9717 8.66983L46.4325 9.1354L47.1178 8.45745C47.9002 7.68335 48.0561 7.44209 47.9844 7.11581C47.9209 6.82701 47.6775 6.65683 47.3279 6.65683C47.0831 6.65683 46.9695 6.74092 46.282 7.43063ZM40.104 11.7481L36.8703 14.9813L38.265 16.3738L39.6596 17.7663L42.8014 14.6311C44.5293 12.9068 45.9949 11.3984 46.0583 11.2792C46.1238 11.1558 46.1517 10.989 46.123 10.892C46.0953 10.7984 45.5798 10.2252 44.9775 9.61838C43.9822 8.61548 43.8577 8.51506 43.61 8.51506C43.3544 8.51506 43.1382 8.71443 40.104 11.7481ZM29.2862 15.4C29.705 15.8187 29.4909 16.4162 28.8822 16.5272C28.739 16.5533 26.548 16.5644 24.0132 16.5517C18.9506 16.5264 19.1374 16.5448 18.9757 16.0551C18.9174 15.8786 18.9215 15.7559 18.9908 15.604C19.188 15.1712 19.0774 15.1801 24.2709 15.1768L29.0598 15.1737L29.2862 15.4ZM32.4477 19.4119C30.4761 21.3909 28.9564 22.9772 28.9052 23.1099C28.8046 23.3696 28.1951 26.3474 28.2344 26.3871C28.2482 26.401 28.9648 26.2707 29.8268 26.0975C30.9332 25.8752 31.4877 25.7268 31.712 25.5932C31.8868 25.4891 33.5284 23.9034 35.3601 22.0696L38.6904 18.7352L37.2954 17.3408L35.9004 15.9463L32.4477 19.4119ZM26.6527 18.7293C26.8943 18.9709 26.9342 19.1839 26.789 19.4566C26.6012 19.809 26.5647 19.8142 24.2306 19.8168C22.0331 19.8193 22.0058 19.8173 21.8144 19.6451C21.5197 19.38 21.5145 18.9807 21.8023 18.6931L21.9924 18.503H24.2093H26.4263L26.6527 18.7293ZM12.3755 33.1696C11.7079 33.4078 11.2136 33.9817 11.0655 34.6907C10.9343 35.3187 11.1219 35.8974 11.6167 36.3922C12.284 37.0591 11.2583 37.012 24.6144 36.9893L36.4018 36.9691L36.5782 36.7929C36.75 36.6213 36.7552 36.5706 36.778 34.8379L36.8015 33.0591L24.7337 33.0625C14.8549 33.0653 12.6133 33.0848 12.3755 33.1696Z" fill="#255EA2"/>
</svg>
