<svg width="32" height="32" viewBox="0 0 32 32" xmlns="http://www.w3.org/2000/svg">
<g clip-path="url(#clip0_1023_316)">
<path d="M0 15.36C0 8.11907 -2.12913e-06 4.49488 2.24893 2.24893C4.49786 0.00297667 8.11907 0 15.36 0H16.64C23.8809 0 27.5051 0 29.7511 2.24893C31.997 4.49786 32 8.11907 32 15.36V16.64C32 23.8809 32 27.5051 29.7511 29.7511C27.5021 31.997 23.8809 32 16.64 32H15.36C8.11907 32 4.49488 32 2.24893 29.7511C0.00297454 27.5021 0 23.8809 0 16.64V15.36Z" />
<path fill-rule="evenodd" clip-rule="evenodd" d="M6.59114 15.6279C11.7082 13.3983 15.1205 11.9283 16.8282 11.2178C21.7041 9.18917 22.7162 8.83642 23.377 8.82601C23.6196 8.82025 23.8578 8.89165 24.0572 9.02991C24.1967 9.15157 24.2858 9.32085 24.3072 9.5047C24.3428 9.73359 24.3528 9.96571 24.337 10.1968C24.0721 12.9726 22.929 19.709 22.3471 22.8167C22.1015 24.1324 21.6178 24.5745 21.1474 24.6176C20.1279 24.7114 19.3539 23.9434 18.3671 23.296C16.8222 22.2839 15.9485 21.6588 14.4498 20.6645C12.7158 19.5229 13.8395 18.8948 14.8278 17.8694C15.0868 17.6 19.5772 13.5144 19.665 13.1438C19.6763 13.0894 19.6747 13.0331 19.6605 12.9793C19.6463 12.9256 19.6198 12.8759 19.5831 12.8342C19.5298 12.7998 19.4691 12.7786 19.4059 12.7724C19.3427 12.7662 19.279 12.7751 19.22 12.7985C19.0652 12.8342 16.597 14.4654 11.8153 17.6922C11.1138 18.1745 10.4793 18.4091 9.9117 18.3962C9.28361 18.3828 8.07803 18.042 7.18203 17.7503C6.08361 17.3931 5.20994 17.2041 5.28585 16.5968C5.32455 16.2793 5.75964 15.9563 6.59114 15.6279Z" fill="#393A40"/>
</g>
<defs>
<clipPath id="clip0_1023_316">
<rect width="32" height="32" />
</clipPath>
</defs>
</svg>
