<svg width="98" height="56" viewBox="0 0 98 56" fill="none" xmlns="http://www.w3.org/2000/svg">
<path fill-rule="evenodd" clip-rule="evenodd" d="M6.30287 0.159775C5.37023 0.380077 4.29339 1.34302 4.00517 2.21446C3.89377 2.55139 2.94693 7.46781 1.90128 13.1398L0 23.4527L0.00440025 33.3757C0.00840043 42.6216 0.0342014 43.3544 0.381016 44.1158C0.585825 44.5652 1.05645 45.1484 1.42666 45.4117C2.02149 45.8346 2.3785 45.902 4.48419 45.9901L6.8681 46.0898L7.14611 47.464C8.56957 54.5015 16.4291 58.1133 22.8868 54.6977C25.5183 53.3059 27.6624 50.3553 28.2366 47.3348L28.4928 45.9881L48.3861 46.0389L68.2793 46.0898L68.5286 47.4353C69.4364 52.3384 73.8956 55.9802 79.011 55.9964C82.669 56.0079 85.7649 54.4277 87.832 51.4938C88.7862 50.1393 89.8039 47.5581 89.8039 46.4923V46.0182L92.854 45.9542C95.6999 45.8946 95.9491 45.8583 96.5776 45.4117C97.9442 44.44 97.9948 44.1194 97.9998 36.4125C98.0046 28.7691 97.9148 28.0292 96.7458 26.0806C95.9297 24.7209 94.8479 23.7761 93.204 22.9882C91.977 22.3999 91.7508 22.3612 89.1742 22.2964L86.4445 22.228L82.1957 13.4245C79.859 8.58267 77.7656 4.35209 77.5435 4.02313C76.4515 2.40526 74.8946 1.17496 73.0498 0.472385L71.9031 0.0357681L39.5017 0.00366919C19.7325 -0.0160682 6.78949 0.0449393 6.30287 0.159775ZM50.4022 12.0975V22.2653H26.2795H2.15669L2.2657 21.8167C2.3257 21.5699 3.10453 17.3758 3.99657 12.4963C4.88861 7.61674 5.71105 3.33351 5.82425 2.97804C5.93766 2.62237 6.18107 2.24397 6.36527 2.13671C6.57768 2.0131 14.6954 1.93973 28.5512 1.93574L50.4022 1.92976V12.0975ZM72.2709 2.33309C73.256 2.63632 73.8568 2.98761 74.6922 3.7486C75.3033 4.30543 75.8033 4.83894 75.8033 4.93404C75.8033 5.02934 71.9489 5.13261 67.2381 5.16331L58.6727 5.21934L57.8487 5.76321C57.3955 6.06226 56.772 6.73513 56.4634 7.25847L55.9024 8.20986L55.8024 15.1877L55.7024 22.1656L54.0523 22.2234L52.4023 22.2814V12.1055V1.92976H61.6817C70.4312 1.92976 71.0357 1.95269 72.2709 2.33309ZM9.98483 5.57302C9.61362 5.82223 9.10059 6.3358 8.84478 6.7142C8.38796 7.39006 8.38076 7.47897 8.43996 11.7933C8.49757 15.9822 8.52117 16.2137 8.95179 16.8154C9.2 17.1623 9.79102 17.6334 10.265 17.8621C11.1173 18.2734 11.3077 18.2779 27.4144 18.2736C42.837 18.2694 43.7453 18.2496 44.5177 17.8999C46.3516 17.0696 46.6542 16.0689 46.5672 11.1228C46.4938 6.94706 46.3762 6.51981 45.0533 5.62386L44.3091 5.11965H27.4844H10.6597L9.98483 5.57302ZM20.0009 11.5991V16.2843H15.6229C9.87843 16.2843 10.3228 16.6234 10.2324 12.1697C10.1584 8.51429 10.3224 7.50709 11.0491 7.15779C11.3279 7.02402 13.1262 6.93569 15.7507 6.92752L20.0009 6.91396V11.5991ZM31.8014 11.5991V16.2843H26.9012H22.0009V11.5991V6.91396H26.9012H31.8014V11.5991ZM44.1109 7.40341C44.5967 7.88748 44.6019 7.93194 44.6019 11.5632C44.6019 14.9746 44.5727 15.2707 44.1873 15.7589L43.7729 16.2843H38.7871H33.8015V11.5991V6.91396H38.7107H43.6201L44.1109 7.40341ZM76.9483 7.16317C77.1511 7.42355 84.2036 22.0151 84.2036 22.1742C84.2036 22.2242 78.2634 22.2653 71.0031 22.2653H57.8025L57.8033 15.5366C57.8039 9.1419 57.8241 8.77526 58.2071 8.14865C58.9455 6.94148 59.0369 6.93031 68.3285 6.92174C74.8398 6.91576 76.7985 6.97059 76.9483 7.16317ZM50.3022 34.1277V44.0961L39.3839 44.1475L28.4656 44.1992L28.2082 43.051C27.4208 39.5379 24.9753 36.6854 21.5467 35.2804C20.0397 34.663 17.1371 34.4455 15.3473 34.8159C13.5434 35.1891 11.4939 36.319 10.1154 37.7004C8.69538 39.1233 7.88494 40.5236 7.27891 42.6008L6.8429 44.0961H4.80341C1.73047 44.0961 2.00009 45.1053 2.00009 33.6063V24.058L26.1511 24.1087L50.3022 24.1593V34.1277ZM92.043 24.5233C93.2106 24.9757 94.5579 26.1402 95.1669 27.2236L95.6297 28.047H93.7068C90.4155 28.047 89.9039 28.5833 89.9039 32.0343C89.9039 34.5725 90.0461 35.0125 91.0667 35.6329C91.5932 35.9529 92.078 36.0203 93.854 36.0209L96.0042 36.0217V39.5882C96.0042 44.3064 96.1806 44.0736 92.542 44.1611L89.8435 44.2259L89.6325 43.2448C88.7462 39.1261 85.7761 35.9766 81.7773 34.9158C80.3367 34.5336 77.5435 34.5478 76.1897 34.9441C72.4533 36.038 69.3754 39.2497 68.5374 42.9288L68.2713 44.0961L60.3368 44.1481L52.4023 44.2004V34.1251V24.05L71.7531 24.1049C89.9315 24.1561 91.1607 24.1816 92.043 24.5233ZM96.0042 32.0413V34.042L93.9541 33.9851L91.904 33.9283L91.8454 32.2505C91.8132 31.3276 91.8328 30.4527 91.889 30.3066C91.965 30.1094 92.5102 30.0407 93.9979 30.0407H96.0042V32.0413ZM20.3761 36.93C22.5468 37.5726 24.8093 39.6215 25.7911 41.8341C27.631 45.9801 25.6437 51.2642 21.5213 53.1871C17.948 54.854 14.2314 54.2242 11.4867 51.4871C7.97694 47.9868 7.95074 42.6287 11.4267 39.1562C13.8294 36.7558 17.0669 35.9503 20.3761 36.93ZM81.7787 36.93C83.1744 37.3431 85.0953 38.6868 86.0017 39.884C90.1207 45.3244 87.0686 52.891 80.3047 54.0083C78.681 54.2764 76.8693 53.9957 75.2159 53.2196C73.7852 52.5483 71.8389 50.6112 71.1243 49.1475C69.4884 45.7967 70.168 41.8149 72.8293 39.1562C75.232 36.7558 78.4696 35.9503 81.7787 36.93ZM15.4993 40.6771C13.622 41.5486 12.5777 43.2191 12.5763 45.3531C12.5727 50.8599 20.1163 52.34 22.4276 47.286C23.1306 45.7485 22.843 43.6082 21.7393 42.1658C20.3203 40.3113 17.6566 39.6759 15.4993 40.6771ZM76.9019 40.6771C75.7907 41.1929 74.7106 42.297 74.2538 43.3838C73.8022 44.4584 73.8664 46.3801 74.3898 47.4578C74.8878 48.4832 76.1309 49.685 77.1189 50.0965C77.4883 50.2504 78.356 50.3754 79.047 50.3742C81.8371 50.37 83.9034 48.5203 84.1478 45.8083C84.2762 44.382 83.96 43.2348 83.1444 42.1692C81.7227 40.3111 79.061 39.6749 76.9019 40.6771ZM19.3002 42.5815C20.2651 43.1288 20.8009 44.0967 20.8009 45.2923C20.8009 46.6283 20.2219 47.5256 18.9562 48.1518C17.7078 48.7693 16.6577 48.6128 15.5887 47.6502C14.1956 46.3956 14.0642 44.5706 15.2729 43.2633C16.3963 42.0482 17.9086 41.7922 19.3002 42.5815ZM80.7029 42.5815C81.6677 43.1288 82.2036 44.0967 82.2036 45.2923C82.2036 46.6283 81.6245 47.5256 80.3589 48.1518C79.1064 48.7713 78.0608 48.6134 76.9815 47.6415C75.5897 46.388 75.4587 44.5794 76.6653 43.2743C77.7988 42.0484 79.3066 41.7896 80.7029 42.5815Z" fill="#255EA2"/>
</svg>
