<svg width="82" height="72" viewBox="0 0 82 72" fill="none" xmlns="http://www.w3.org/2000/svg">
<path fill-rule="evenodd" clip-rule="evenodd" d="M23.6249 0.158705C17.7043 0.843002 11.761 4.15877 8.00108 8.87498C5.46132 12.0607 3.84659 15.5946 3.0398 19.7334C2.64468 21.7596 2.63691 25.9862 3.02409 28.1016C3.89108 32.8369 6.14769 37.2601 9.4486 40.6941C11.2605 42.5791 11.2274 42.6409 8.40084 42.6486C5.43386 42.6568 5.29195 42.7975 5.29195 45.7341C5.29195 47.6064 5.28335 47.6493 4.63038 49.0105L3.96881 50.3896V53.2801C3.96881 55.427 4.0305 56.3192 4.20847 56.7487C4.4425 57.3135 4.43902 57.327 4.05813 57.327C3.37935 57.327 0.413204 58.9282 0.194225 59.4129C-0.0621336 59.98 -0.0657724 64.0034 0.189594 64.5683C0.31463 64.8451 0.86638 65.2449 1.80217 65.7371L3.22455 66.4851L4.46499 68.4033C5.83626 70.5237 6.25553 70.8567 7.10614 70.5015C7.61473 70.2891 7.84231 69.8286 8.52769 67.6231L8.82556 66.6644H9.78004C11.6124 66.6644 11.9077 66.2747 11.9077 63.8563V62.2311L12.8239 61.9466C13.3277 61.7902 13.8302 61.6633 13.9403 61.6649C14.0503 61.6662 14.5862 62.3542 15.131 63.1934C15.6758 64.0327 16.2141 64.8127 16.3273 64.9268C16.4404 65.0408 17.58 65.486 18.8598 65.9159C20.8943 66.5995 21.2452 66.6732 21.6529 66.503C22.3075 66.2297 22.4928 65.6934 22.4928 64.0721V62.6626H24.0549H25.6172L26.2136 63.8069C26.5785 64.5068 26.9704 65.025 27.2228 65.1409C27.4498 65.2451 28.3604 65.3304 29.2464 65.3304H30.8575L31.4117 67.0395C31.9496 68.6977 32.0062 68.7901 33.3076 70.1395C34.0454 70.9047 34.8501 71.6362 35.0957 71.7652C35.381 71.9151 36.0684 72 36.9977 72C38.238 72 38.7588 71.9018 40.5206 71.3362C42.4384 70.7204 42.7281 70.6723 44.5236 70.6693C45.5882 70.6676 46.6404 70.5827 46.8622 70.481C47.2886 70.2851 47.6324 69.6965 47.6324 69.1624C47.6324 68.8811 47.8599 68.9542 49.4762 69.7539C51.3134 70.6629 51.3255 70.6661 52.8777 70.6661C53.7343 70.6661 54.5978 70.5827 54.7966 70.4808C54.9952 70.379 55.7181 69.7405 56.4032 69.0622C57.5528 67.9237 57.7624 67.7905 59.1322 67.3281C61.1397 66.6503 61.8129 66.3392 61.966 66.0182C62.0371 65.8692 62.1346 64.7779 62.1825 63.593C62.2401 62.1699 62.3352 61.4171 62.4625 61.3746C62.5687 61.3392 62.9326 61.8418 63.2713 62.4915L63.8871 63.6731L65.6055 64.5341L67.3237 65.3953L68.4203 65.0358C69.0561 64.8274 69.6153 64.7322 69.7515 64.809C69.8807 64.8817 70.3433 66.0231 70.7798 67.3451C71.7953 70.4216 71.722 70.2681 72.2878 70.5043C73.1494 70.864 73.5445 70.5304 75.1394 68.0955C75.941 66.8716 76.6319 65.7299 76.6747 65.5587C76.7177 65.3873 76.4524 64.3502 76.0856 63.254C75.7186 62.1579 75.4184 61.1273 75.4184 60.9639C75.4184 60.6856 75.4526 60.6878 75.9559 60.9971C76.42 61.2824 76.792 61.3275 78.6771 61.328C79.9491 61.3284 81.032 61.25 81.2708 61.1403C81.7432 60.9234 82.1222 60.1379 81.9631 59.706C81.9034 59.5439 80.9131 57.8222 79.7623 55.88C78.4049 53.5892 77.5333 52.2861 77.2807 52.1701C77.0523 52.0654 75.7283 51.9913 74.0792 51.9913C71.0626 51.9913 70.7431 52.0614 69.973 52.8926C69.7524 53.1305 69.3989 53.3252 69.1874 53.3252C68.803 53.3252 68.8027 53.3231 68.8027 50.9887V48.6524L70.6117 47.4514C71.6066 46.7909 72.4997 46.0754 72.5965 45.8617C72.693 45.6477 72.7747 44.9324 72.7779 44.2718L72.7835 43.0708L73.6226 44.7003L74.4618 46.33L77.4289 47.8267C79.0608 48.65 80.5006 49.3235 80.6284 49.3235C81.1028 49.3235 81.6866 48.9332 81.8662 48.4958C82.0207 48.12 81.939 47.5883 81.3762 45.3076C81.0048 43.8023 80.6249 42.383 80.5322 42.1537C80.4382 41.922 79.778 41.3399 79.0446 40.8427C78.1474 40.2342 77.6004 39.7278 77.3336 39.2586C76.6403 38.0396 76.6438 37.9096 77.4137 36.276L78.1212 34.775L77.5758 33.0871C76.381 29.3905 76.3257 29.3148 74.8317 29.3148H74.0952V28.4963C74.0952 27.4197 72.6871 24.4791 72.0262 24.1756C71.4165 23.8955 68.7292 23.9222 68.1742 24.214C67.4885 24.5743 65.035 27.1933 64.909 27.6996C64.8261 28.0319 64.9519 28.4773 65.3915 29.4105L65.9859 30.6723L65.6543 31.3275C65.3246 31.9787 65.3169 31.9827 64.3416 31.9827C62.9468 31.9827 62.6268 32.1856 61.9384 33.5062L61.342 34.6505H59.7049C57.2709 34.6505 56.8944 34.9413 56.8944 36.8216C56.8944 37.7583 56.8676 37.8239 56.3814 38.0775C55.8988 38.3291 55.8472 38.3256 55.5131 38.0191C54.873 37.4324 54.4549 37.3183 52.9437 37.3183C50.6934 37.3183 50.2787 37.6428 50.2787 39.404V40.3068L49.5758 40.4898C49.1893 40.5906 48.7313 40.7146 48.5585 40.7656C48.3388 40.8303 48.2692 40.7896 48.3276 40.6306C49.1696 38.3386 49.0927 37.9496 47.6437 37.1711L46.6894 36.6584L47.5578 34.9458C48.622 32.8472 49.3357 30.8337 49.8087 28.5959C50.0946 27.2429 50.1691 26.3202 50.1742 24.0626C50.1815 20.9167 49.9569 19.383 49.0884 16.6497C45.6284 5.76047 34.9566 -1.15103 23.6249 0.158705ZM30.816 3.04662C34.9114 3.97903 38.5405 5.97689 41.4143 8.88132C44.4086 11.9073 46.3371 15.5199 47.2486 19.8107C47.6619 21.7556 47.665 26.1638 47.2547 28.0963C45.5893 35.9394 40.0682 42.0942 32.6977 44.3248C31.7696 44.6056 30.7128 44.9261 30.3489 45.0368C29.6993 45.2347 29.6592 45.2944 28.1161 48.3633C27.2519 50.082 26.5077 51.4883 26.4622 51.4883C26.4167 51.4883 25.6724 50.082 24.8083 48.3633C23.2652 45.2944 23.2251 45.2347 22.5755 45.0368C22.2116 44.9261 21.1324 44.5996 20.1773 44.3113C12.3737 41.9568 6.62584 35.0725 5.44362 26.6645C5.20115 24.9399 5.33611 21.3819 5.7099 19.644C7.11028 13.133 11.1708 7.8292 17.0118 4.88125C18.7696 3.9942 20.9725 3.25071 22.6582 2.97576C23.3404 2.86438 24.0103 2.74616 24.1467 2.71315C24.7692 2.56191 29.7899 2.81302 30.816 3.04662ZM23.615 5.56305C17.5973 6.50762 12.3282 10.4885 9.74763 16.0403C4.90742 26.4533 10.4251 38.6874 21.409 41.8963C27.7728 43.7556 34.7947 41.9146 39.5237 37.1471C45.0381 31.5878 46.4904 23.1692 43.1683 16.0221C39.7166 8.5962 31.6793 4.297 23.615 5.56305ZM29.522 8.28806C33.6131 9.14376 37.3463 11.6315 39.5985 15.0026L40.1929 15.8924L33.3275 15.9359C29.5516 15.9599 23.3728 15.9599 19.5969 15.9359L12.7315 15.8924L13.3368 14.9753C14.2352 13.6142 16.6104 11.322 18.071 10.4068C21.4758 8.27322 25.7077 7.49021 29.522 8.28806ZM41.7296 19.6023C42.5549 22.6433 42.5549 25.3151 41.7296 28.3561L41.4692 29.3148H26.4622H11.4551L11.1948 28.3561C10.7613 26.7586 10.5845 25.491 10.5845 23.9792C10.5845 22.4674 10.7613 21.1998 11.1948 19.6023L11.4551 18.6435H26.4622H41.4692L41.7296 19.6023ZM71.0327 27.4752C71.3673 28.1407 71.449 28.5483 71.449 29.5516C71.449 31.5631 71.8163 31.9827 73.5777 31.9827H74.5332L74.9211 33.2294L75.3087 34.4759L74.6731 35.8415C74.0521 37.1759 74.0415 37.2303 74.2105 38.2214C74.5481 40.1996 75.5082 41.6398 77.2337 42.7567C78.2549 43.4176 78.2729 43.4468 78.6554 45.0428L78.7684 45.5142L77.591 44.9164C76.4744 44.3495 76.3841 44.2596 75.8439 43.1785C75.0798 41.6487 74.563 41.0668 73.6588 40.7188C73.0046 40.4668 72.7961 40.4553 72.1337 40.6337C70.7325 41.0112 70.1258 41.8961 70.1258 43.562V44.6535L68.3168 45.863C67.3218 46.5283 66.4286 47.2449 66.3321 47.4555C66.0902 47.9828 66.0972 54.679 66.34 55.2166C66.6127 55.8198 67.1658 55.9931 68.8187 55.9931C70.4181 55.9931 70.9162 55.8318 71.6018 55.0918C71.9911 54.6717 72.0616 54.6591 74.0246 54.6591H76.0464L77.1945 56.6183L78.3427 58.5775L77.8556 58.631C77.4421 58.6766 77.1768 58.497 76.1039 57.4457C74.7117 56.0816 74.298 55.8678 73.6083 56.156C72.9076 56.4486 72.7721 56.9581 72.7721 59.303C72.7721 61.2975 72.8085 61.5383 73.3563 63.1718C73.9629 64.9805 73.9745 65.3101 73.4555 65.9816L73.1454 66.3826L72.9787 65.8148C72.8869 65.5025 72.7251 64.9269 72.6191 64.5356C72.3876 63.6809 71.5712 62.6971 70.8367 62.3877C70.1831 62.1124 69.2077 62.099 68.2668 62.3528C67.6253 62.5257 67.482 62.5027 66.6951 62.1007C66.0047 61.7481 65.7467 61.4941 65.4214 60.847C64.3708 58.7569 62.5523 58.1205 60.8425 59.2446C59.8783 59.8787 59.5407 60.791 59.5407 62.7632V64.4259L57.8454 64.9851C56.2297 65.5182 56.0914 65.6019 54.8978 66.7712C53.6714 67.9729 53.6279 67.9983 52.7962 67.9983C52.0674 67.9983 51.568 67.809 49.2761 66.6644C47.8073 65.9307 46.5051 65.3304 46.3824 65.3304C45.9405 65.3304 45.3499 65.7088 45.1697 66.1069C45.0689 66.3305 44.9862 66.8474 44.9862 67.2558V67.9983H43.6139C42.4515 67.9983 41.9406 68.1001 40.2725 68.6652C38.8345 69.1523 38.0322 69.3322 37.2987 69.3322H36.2941L35.2014 68.2067C34.1673 67.1419 34.076 66.9822 33.5078 65.2471C33.1775 64.2383 32.8526 63.3304 32.7858 63.2295C32.5079 62.8097 31.8598 62.6626 30.2861 62.6626H28.6303L28.0339 61.5183C27.6691 60.8185 27.2771 60.3003 27.0247 60.1844C26.4756 59.9321 21.1643 59.9284 20.6167 60.1799C20.0453 60.4425 19.8465 61.0037 19.8465 62.3548C19.8465 63.2937 19.7997 63.514 19.6156 63.4426C19.4886 63.3936 19.0824 63.262 18.7129 63.1503C18.1062 62.9672 17.9155 62.7557 16.7523 60.9767C15.9077 59.685 15.3098 58.9407 15.0172 58.8168C14.6337 58.654 14.2504 58.7356 12.2882 59.3972C11.0329 59.8206 9.92377 60.2219 9.82371 60.2893C9.42131 60.5599 9.26137 61.2082 9.26137 62.5682V63.9965H8.52488C7.35506 63.9965 6.99169 64.2525 6.59194 65.3576C6.39843 65.8929 6.22096 66.3309 6.19764 66.3309C6.17432 66.3309 5.86802 65.881 5.51689 65.3313C4.9868 64.5013 4.6891 64.231 3.76207 63.7383L2.64567 63.1447V61.9893V60.8342L3.46718 60.4145C4.12726 60.0772 4.53164 59.9948 5.52681 59.9948C6.93546 59.9948 7.49118 59.801 7.75465 59.2183C8.02308 58.6244 8.00141 58.525 7.27666 57.014L6.61509 55.6347V53.3252V51.0157L7.27666 49.6365C7.89473 48.3479 7.93823 48.161 7.93823 46.7896V45.3218H9.38972C10.818 45.3218 10.8597 45.3101 12.0132 44.5865L13.1853 43.8511L13.663 44.1786C15.2044 45.2361 20.1156 47.3226 21.063 47.3226C21.2436 47.3226 21.9867 48.644 23.3948 51.4691C25.1873 55.0655 25.5279 55.6434 25.9619 55.8247C26.3628 55.9921 26.5616 55.9921 26.9625 55.8247C27.396 55.6436 27.7365 55.0675 29.5119 51.5108L31.5607 47.406L32.9333 47.0248C37.02 45.8902 41.1775 43.3214 43.9348 40.2279C44.5437 39.5448 45.1267 38.9857 45.2306 38.9857C45.3343 38.9857 45.5551 39.0861 45.7215 39.2086C46.0109 39.4219 46.0008 39.5008 45.4885 41.0514C45.0259 42.451 44.9799 42.7362 45.1492 43.1485C45.5242 44.0611 45.954 44.0809 48.9696 43.3246C50.4628 42.9502 51.8796 42.5659 52.1179 42.4709C52.661 42.2541 52.925 41.6844 52.925 40.7286C52.925 40.0823 52.9706 39.9861 53.2771 39.9861C53.4708 39.9861 53.9154 40.2469 54.2653 40.5655C55.2766 41.4866 55.5318 41.4828 57.4586 40.517C59.3181 39.5853 59.5407 39.3227 59.5407 38.0608V37.3183H60.9388C61.7077 37.3183 62.5226 37.2329 62.7495 37.1287C63.0019 37.0128 63.3938 36.4946 63.7587 35.7948L64.3551 34.6505H65.3306C66.8312 34.6505 67.0499 34.4817 67.9818 32.6049C68.4334 31.6959 68.8027 30.8275 68.8025 30.6753C68.8025 30.5232 68.5763 29.9166 68.2997 29.3273L67.7971 28.256L68.583 27.4515C69.2466 26.7724 69.4662 26.647 69.9929 26.647C70.5745 26.647 70.6445 26.7027 71.0327 27.4752ZM39.9389 32.4412C38.1002 35.3586 35.0606 37.8514 31.9643 38.9809C24.8605 41.5722 17.0424 38.8783 12.9855 32.4412L12.6966 31.9827H26.4622H40.2278L39.9389 32.4412Z" fill="#255EA2"/>
</svg>
