<?xml version="1.0" encoding="utf-8"?><svg viewBox="0 0 106 80" xmlns="http://www.w3.org/2000/svg" xmlns:xlink="http://www.w3.org/1999/xlink"><style>:root>svg{display:none}:root>svg:target{display:block}</style><svg fill="none" viewBox="0 0 60 35" id="arrow-right" xmlns="http://www.w3.org/2000/svg"><path fill-rule="evenodd" clip-rule="evenodd" d="M43.358.696l15.91 15.124a2.294 2.294 0 010 3.36l-15.91 15.124a2.593 2.593 0 01-3.536 0 2.294 2.294 0 010-3.36l11.642-11.068H0v-4.752h51.465L39.822 4.057a2.294 2.294 0 010-3.361 2.593 2.593 0 013.536 0z" fill="#255EA2"/></svg><svg fill="none" viewBox="0 0 26 26" id="close-modal" xmlns="http://www.w3.org/2000/svg"><path fill-rule="evenodd" clip-rule="evenodd" d="M24.862 25.293L.984.987l.682-.694 23.878 24.306-.682.694z" fill="#000"/><path fill-rule="evenodd" clip-rule="evenodd" d="M1.228 25.293L25.106.987l-.682-.694L.546 24.599l.682.694z" fill="#000"/></svg><svg fill="none" viewBox="0 0 27 26" id="close-nav" xmlns="http://www.w3.org/2000/svg"><path fill="#F1F1F4" d="M3 0l23.388 23.388-2.122 2.12L.88 2.122z"/><path fill="#F1F1F4" d="M24 0L.612 23.388l2.122 2.12L26.12 2.122z"/></svg><svg fill="none" viewBox="0 0 48 37" id="guarantee-doc" xmlns="http://www.w3.org/2000/svg"><path fill-rule="evenodd" clip-rule="evenodd" d="M12.319.15c-.29.1-.528.255-.749.49-.616.65-.57-.691-.57 16.451 0 8.406.027 15.271.059 15.255l.6-.297.542-.267 12.406-.04 12.406-.038.2-.188.2-.187v-9.452l-2.42 2.405c-1.985 1.973-2.498 2.441-2.847 2.603-.264.122-1.119.336-2.246.562-1.776.357-1.846.364-2.866.323-.575-.024-1.22-.093-1.433-.153-.43-.122-1.14-.463-1.425-.686l-.186-.146-.256.53c-.756 1.56-2.688 2.22-4.226 1.44-.455-.23-.93-.645-1.155-1.01l-.164-.265-.312.282c-.5.45-.93.61-1.648.612-.543 0-.67-.027-1.034-.229-.926-.512-1.159-1.304-.489-1.661.257-.137.545-.043.888.29.246.238.348.285.625.285.73 0 1.245-.63 1.355-1.658.072-.673.27-.936.708-.936.435 0 .62.249.701.942.078.662.149.923.366 1.344.327.637.874.966 1.605.966.535 0 .93-.19 1.304-.626.335-.392.498-.843.599-1.658.087-.713.278-.97.715-.966.305.003.454.112.634.462.235.456.5.755.878.996.415.263 1.076.476 1.48.476h.277l.358-1.781c.244-1.21.427-1.924.572-2.226.183-.38.898-1.131 4.928-5.17l4.714-4.726V6.487c0-3.306-.022-6.068-.048-6.137-.14-.365.315-.352-12.554-.35-11.634.003-12.083.008-12.492.15zm18.714 5.323c.415.222.907.784 1.022 1.169.06.203.091 1.066.091 2.609 0 1.542-.03 2.405-.091 2.608-.115.385-.607.947-1.022 1.17l-.32.17-6.306.021c-7.214.025-6.874.052-7.522-.596-.58-.58-.617-.782-.617-3.373 0-2.592.037-2.793.617-3.373.638-.638.26-.608 7.477-.591l6.351.015.32.17zM17.83 6.836c-.165.176-.168.225-.168 2.439 0 2.565-.013 2.514.633 2.606.184.027 2.996.038 6.248.025l5.913-.023.186-.217.187-.217V7.037l-.19-.19-.19-.19H18l-.169.179zm28.452.595l-.771.773.46.466.462.465.685-.678c.782-.774.938-1.015.866-1.341-.063-.289-.306-.46-.656-.46-.245 0-.359.085-1.046.775zm-6.178 4.317l-3.234 3.233 1.395 1.393 1.395 1.392 3.141-3.135c1.728-1.724 3.194-3.233 3.257-3.352.066-.123.094-.29.065-.387-.028-.094-.543-.667-1.145-1.274-.996-1.003-1.12-1.103-1.368-1.103-.256 0-.472.2-3.506 3.233zM29.286 15.4c.419.419.205 1.016-.404 1.127-.143.026-2.334.037-4.869.025-5.062-.026-4.876-.007-5.037-.497a.553.553 0 01.015-.451c.197-.433.086-.424 5.28-.427l4.789-.003.226.226zm3.162 4.012c-1.972 1.979-3.492 3.565-3.543 3.698-.1.26-.71 3.237-.67 3.277.013.014.73-.116 1.592-.29 1.106-.222 1.66-.37 1.885-.504.175-.104 1.816-1.69 3.648-3.523l3.33-3.335-1.395-1.394-1.395-1.395-3.452 3.466zm-5.795-.683c.241.242.281.455.136.728-.188.352-.224.357-2.558.36-2.198.002-2.225 0-2.417-.172-.294-.265-.3-.664-.012-.952l.19-.19h4.434l.227.226zM12.376 33.17a2.048 2.048 0 00-1.31 1.522c-.132.628.056 1.206.55 1.701.668.667-.358.62 12.998.597l11.788-.02.176-.176c.172-.172.177-.222.2-1.955l.023-1.779-12.067.004c-9.88.002-12.12.022-12.359.107z" fill="#255EA2"/></svg><svg fill="none" viewBox="0 0 36 27" id="guarantee-folder" xmlns="http://www.w3.org/2000/svg"><path fill-rule="evenodd" clip-rule="evenodd" d="M.787.197C.497.34.327.51.184.8c-.197.403-.198.449-.173 12.845.025 12.398.026 12.441.224 12.703.109.144.317.35.463.457L.964 27h34.108l.266-.196a2.73 2.73 0 00.464-.457c.197-.261.198-.31.198-10.386V5.837l-10.049-.048-10.048-.047-.452-.206c-.891-.407-1.248-.89-2.45-3.314L11.899 0H6.545C1.317 0 1.18.005.787.197zm25.78 20.043c.558.316.73.713.73 1.681 0 1.323-.412 1.852-1.442 1.852-1.026 0-1.442-.53-1.442-1.837 0-.977.212-1.428.81-1.72.505-.246.878-.24 1.343.024zm4.852.04c.14.1.354.372.477.604.194.366.218.526.185 1.207-.041.866-.172 1.132-.744 1.516-.659.443-1.655.15-2.02-.593-.216-.441-.266-1.551-.09-2.01.136-.353.455-.688.811-.85.372-.17 1.055-.108 1.381.127z" fill="#255EA2"/></svg><svg fill="none" viewBox="0 0 29 42" id="guarantee-lock" xmlns="http://www.w3.org/2000/svg"><path fill-rule="evenodd" clip-rule="evenodd" d="M13.22.079c-2.152.272-4.144 1.26-5.753 2.853a9.79 9.79 0 00-2.763 5.111c-.153.753-.281 5.238-.15 5.238.038 0 1.27-.397 2.736-.882l2.666-.881v-.991c0-1.837.33-2.763 1.34-3.767.928-.921 1.964-1.358 3.22-1.358a4.552 4.552 0 014.063 2.56c.363.757.465 1.32.465 2.565v.991l2.666.881c1.466.485 2.698.882 2.737.882.04 0 .051-1.042.026-2.319-.048-2.508-.132-3.121-.6-4.411C22.3 2.209 17.832-.505 13.22.079zm-5.99 14.96L0 17.439v5.205c0 5.529.015 5.797.416 7.382.267 1.057.538 1.75 1.122 2.87 1.448 2.78 4.074 5.183 7.638 6.994a31.12 31.12 0 004.346 1.795l.963.315.813-.25c2.226-.688 4.998-1.978 6.76-3.147 3.964-2.63 6.231-5.98 6.834-10.098.08-.547.108-2.08.108-5.902v-5.164l-7.147-2.367c-3.93-1.302-7.202-2.382-7.27-2.4-.069-.018-3.377 1.047-7.354 2.367zm8.446 3.981c1.528.389 2.669 1.3 3.362 2.689.49.98.64 2.323.377 3.352-.178.695-.641 1.595-1.06 2.06l-.36.4.273 2.38c.15 1.309.274 2.481.276 2.605l.004.226h-8.096l.004-.226c.002-.124.127-1.296.276-2.605l.272-2.38-.358-.4c-.42-.465-.883-1.365-1.06-2.06-.16-.62-.16-1.657 0-2.326.634-2.675 3.442-4.387 6.09-3.715zm-1.841 2.41c-1.052.296-1.774 1.175-1.875 2.28-.083.905.34 1.742 1.176 2.336l.506.358-.216 1.933-.215 1.933h2.578l-.215-1.933-.216-1.933.506-.358c1.095-.776 1.478-2.036.968-3.182-.498-1.119-1.838-1.759-2.997-1.433z" fill="#255EA2"/></svg><svg fill="none" viewBox="0 0 36 25" id="hamburger" xmlns="http://www.w3.org/2000/svg"><path fill="#313644" d="M0 22h36v3H0zM0 11h36v3H0zM0 0h36v3H0z"/></svg><svg fill="none" viewBox="0 0 31 12" id="logo" xmlns="http://www.w3.org/2000/svg"><path d="M3.324 11.532a2.84 2.84 0 01-1.42-.368 2.96 2.96 0 01-1.04-1A2.855 2.855 0 01.41 8.797a.55.55 0 01.179-.442.658.658 0 01.452-.168c.26 0 .424.2.494.6.078.441.28.81.61 1.104.337.294.73.442 1.178.442.316 0 .604-.077.863-.232.266-.154.477-.364.631-.63.154-.26.231-.548.231-.863v-.61a2.83 2.83 0 01-1.725.568 2.794 2.794 0 01-1.451-.4A3.025 3.025 0 01.8 7.093a2.794 2.794 0 01-.4-1.451c0-.52.134-1.003.4-1.452a3.025 3.025 0 011.073-1.073c.449-.266.933-.4 1.451-.4.526 0 1.014.134 1.463.4.448.26.802.614 1.062 1.063.266.448.4.936.4 1.462v2.966c0 .526-.134 1.013-.4 1.462a2.86 2.86 0 01-1.062 1.062c-.45.267-.937.4-1.463.4zm0-4.165c.316 0 .604-.078.863-.232.266-.154.477-.361.631-.62.154-.267.231-.558.231-.873 0-.316-.077-.603-.23-.863a1.703 1.703 0 00-.632-.631 1.656 1.656 0 00-.863-.231c-.315 0-.606.077-.873.231a1.703 1.703 0 00-.63.631c-.155.26-.232.547-.232.863 0 .315.077.606.231.873.155.259.365.466.631.62.267.154.558.232.873.232zm4.314.915a.566.566 0 01-.432-.18.672.672 0 01-.168-.462V.719c0-.182.056-.333.168-.452a.55.55 0 01.432-.19c.175 0 .319.064.43.19.113.119.17.27.17.452V7.64a.672.672 0 01-.17.463.566.566 0 01-.43.179zm6.643.315a.584.584 0 01-.43-.168.584.584 0 01-.17-.431 2.84 2.84 0 01-.82.42 2.842 2.842 0 01-2.356-.252 3.025 3.025 0 01-1.073-1.073 2.794 2.794 0 01-.4-1.451c0-.52.134-1.003.4-1.452a3.025 3.025 0 011.073-1.073c.45-.266.933-.4 1.452-.4.519 0 1.003.134 1.451.4.45.267.807.624 1.073 1.073.267.449.4.933.4 1.452v2.314a.634.634 0 01-.168.452.551.551 0 01-.432.19zm-2.324-1.23c.315 0 .603-.078.862-.232.267-.154.477-.361.631-.62.155-.267.232-.558.232-.873 0-.316-.077-.603-.232-.863a1.704 1.704 0 00-.63-.631 1.656 1.656 0 00-.863-.231c-.316 0-.607.077-.873.231a1.702 1.702 0 00-.631.631c-.154.26-.232.547-.232.863 0 .315.078.606.232.873.154.259.364.466.63.62.267.154.558.232.874.232zm4.355.915a.617.617 0 01-.452-.19.617.617 0 01-.19-.452v-.095c0-.126.046-.245.137-.357l2.809-3.24h-2.304a.617.617 0 01-.452-.19.617.617 0 01-.19-.451c0-.155.06-.284.18-.39a.699.699 0 01.462-.157h3.482c.182 0 .333.063.452.189.126.12.19.27.19.452v.084a.558.558 0 01-.137.358l-2.809 3.24h2.304c.182 0 .333.063.452.189.126.12.19.27.19.452a.518.518 0 01-.19.4.658.658 0 01-.452.158h-3.482zm7.842.284a2.794 2.794 0 01-1.452-.4 3.024 3.024 0 01-1.073-1.073 2.794 2.794 0 01-.4-1.451c0-.52.134-1.003.4-1.452a3.024 3.024 0 011.073-1.073c.449-.266.933-.4 1.452-.4.518 0 1.002.134 1.451.4.449.267.806.624 1.073 1.073.266.449.4.933.4 1.452v.105a.46.46 0 01-.19.357.615.615 0 01-.4.137h-3.954c.119.337.326.61.62.82.302.204.635.306 1 .306.322 0 .62-.085.894-.253a.9.9 0 01.431-.137c.168 0 .316.074.442.221a.6.6 0 01.147.39.561.561 0 01-.253.462 2.925 2.925 0 01-1.661.516zm1.609-3.524a1.618 1.618 0 00-.62-.81 1.661 1.661 0 00-.99-.315 1.66 1.66 0 00-.988.315 1.677 1.677 0 00-.631.81h3.229zm2.704 3.24a.565.565 0 01-.431-.18.67.67 0 01-.17-.462V5.01c0-.427.103-.82.306-1.178.203-.364.48-.659.831-.883.35-.232.733-.365 1.147-.4a.48.48 0 01.42.168c.12.127.18.277.18.453v.02c0 .33-.204.53-.61.6a1.408 1.408 0 00-.769.421 1.126 1.126 0 00-.305.8V7.64a.673.673 0 01-.168.463.567.567 0 01-.431.179z" fill="#EDEFF1"/></svg><svg fill="none" viewBox="0 0 21 21" id="mail" xmlns="http://www.w3.org/2000/svg"><path fill-rule="evenodd" clip-rule="evenodd" d="M4.509 4H16.49c1.184 0 2.188.858 2.429 2.002l-8.41 5.23-8.43-5.23C2.321 4.858 3.325 4 4.51 4zm5.981 8.704a.94.94 0 00.502-.143L19 7.596v6.6c0 1.41-1.124 2.554-2.509 2.554H4.51C3.124 16.75 2 15.605 2 14.195v-6.6l7.988 4.966a.94.94 0 00.502.143z" fill="#255EA2"/></svg><svg fill="none" viewBox="0 0 21 21" id="map" xmlns="http://www.w3.org/2000/svg"><path d="M10.5 1C6.916 1 4 4.087 4 7.881c0 4.709 5.817 11.622 6.065 11.913a.564.564 0 00.87 0C11.183 19.503 17 12.59 17 7.881 17 4.087 14.084 1 10.5 1zm0 10.343c-1.803 0-3.27-1.553-3.27-3.462 0-1.909 1.467-3.462 3.27-3.462s3.27 1.553 3.27 3.462c0 1.91-1.467 3.462-3.27 3.462z" fill="#255EA2"/></svg><svg fill="none" viewBox="0 0 21 21" id="phone" xmlns="http://www.w3.org/2000/svg"><path d="M7.13 9.165c.505.914 1.086 1.791 1.84 2.591.757.805 1.698 1.537 2.917 2.163.09.044.176.044.252.014.116-.045.235-.142.35-.258.091-.09.204-.236.32-.394.47-.62 1.05-1.389 1.868-1.003.019.008.032.018.05.025l2.732 1.58c.009.004.019.013.026.018.36.249.509.633.513 1.068 0 .443-.163.941-.4 1.362-.316.556-.78.924-1.314 1.167-.51.235-1.076.361-1.62.442-.855.127-1.655.046-2.474-.207-.801-.249-1.608-.66-2.49-1.207l-.064-.042c-.404-.254-.841-.525-1.27-.845-1.567-1.19-3.165-2.909-4.206-4.8-.873-1.588-1.35-3.302-1.09-4.935.145-.895.527-1.71 1.193-2.247.582-.471 1.364-.729 2.377-.638.116.009.22.076.275.177l1.752 2.976c.256.334.288.665.147.996-.116.271-.35.521-.67.755a5.084 5.084 0 01-.325.249c-.391.285-.837.615-.684 1.003l-.004-.01z" fill="#255EA2"/></svg><svg viewBox="0 0 106 80" id="promobar-arrows" xmlns="http://www.w3.org/2000/svg"><path fill-rule="evenodd" clip-rule="evenodd" d="M.189.579c-.24.385-.253 1.125-.03 1.643.221.518 11.32 9.168 24.662 19.221 13.342 10.054 24.182 18.493 24.088 18.753-.094.261-11.112 8.747-24.484 18.858C1.357 76.497-1.86 79.4 1.216 79.99c.608.117 7.902-4.943 16.21-11.245 8.307-6.301 20.098-15.217 26.203-19.813 6.104-4.596 11.1-8.574 11.1-8.84 0-.72-51.394-39.507-52.853-39.887C1.186.025.426.193.189.579zm51.408.06c-.218.352-.215 1.065.008 1.583.222.518 11.32 9.168 24.662 19.221 13.342 10.054 24.182 18.486 24.088 18.737-.182.488-6.044 4.99-31.884 24.48-8.915 6.725-16.442 12.565-16.726 12.979-.717 1.042-.272 2.119.976 2.36.805.156 28.547-20.33 51.692-38.169 1.415-1.09 1.881-1.864 1.409-2.34C103.643 37.29 53.68 0 52.913 0c-.506 0-1.098.288-1.316.64z"/></svg><svg viewBox="0 0 29 28" id="slider-arrow" xmlns="http://www.w3.org/2000/svg"><path d="M10 19.355L15.563 14 10 8.645 11.713 7 19 14l-7.287 7L10 19.355z"/></svg><svg viewBox="0 0 32 32" id="social-dzen" xmlns="http://www.w3.org/2000/svg"><g clip-path="url(#nclip0_1023_301)"><path d="M19.107 19.107c-2.517 2.597-2.7 5.835-2.918 12.928 6.613 0 11.178-.023 13.535-2.311 2.288-2.357 2.311-7.14 2.311-13.535-7.093.229-10.331.4-12.928 2.918zM0 16.189c0 6.396.023 11.178 2.311 13.535 2.357 2.288 6.922 2.311 13.535 2.311-.229-7.093-.4-10.331-2.918-12.928-2.597-2.517-5.835-2.7-12.928-2.918zM15.846 0C9.244 0 4.668.023 2.31 2.311.023 4.668 0 9.451 0 15.846c7.093-.229 10.331-.4 12.928-2.918 2.517-2.597 2.7-5.835 2.918-12.928zm3.26 12.928C16.59 10.331 16.407 7.093 16.19 0c6.613 0 11.178.023 13.535 2.311 2.288 2.357 2.311 7.14 2.311 13.535-7.093-.229-10.331-.4-12.928-2.918z"/><path d="M32.035 16.19v-.344c-7.093-.229-10.331-.4-12.928-2.918-2.517-2.597-2.7-5.835-2.918-12.928h-.343c-.229 7.093-.4 10.331-2.918 12.928-2.597 2.517-5.835 2.7-12.928 2.918v.343c7.093.229 10.331.4 12.928 2.918 2.517 2.597 2.7 5.835 2.918 12.928h.343c.229-7.093.4-10.331 2.918-12.928 2.597-2.517 5.835-2.7 12.928-2.918z" fill="#393A40"/></g><defs><clipPath id="nclip0_1023_301"><path d="M0 0h32v32H0z"/></clipPath></defs></svg><svg viewBox="0 0 32 32" id="social-telegram" xmlns="http://www.w3.org/2000/svg"><g clip-path="url(#oclip0_1023_316)"><path d="M0 15.36C0 8.12 0 4.495 2.249 2.249 4.498.003 8.119 0 15.36 0h1.28c7.24 0 10.865 0 13.111 2.249C31.997 4.498 32 8.119 32 15.36v1.28c0 7.24 0 10.865-2.249 13.111C27.502 31.997 23.881 32 16.64 32h-1.28c-7.24 0-10.865 0-13.111-2.249C.003 27.502 0 23.881 0 16.64v-1.28z"/><path fill-rule="evenodd" clip-rule="evenodd" d="M6.591 15.628c5.117-2.23 8.53-3.7 10.237-4.41 4.876-2.029 5.888-2.382 6.549-2.392.243-.006.48.066.68.204.14.122.229.29.25.475.036.229.046.46.03.692-.265 2.776-1.408 9.512-1.99 12.62-.245 1.315-.73 1.758-1.2 1.8-1.02.094-1.793-.674-2.78-1.321-1.545-1.012-2.419-1.637-3.917-2.631-1.734-1.142-.61-1.77.378-2.796.259-.269 4.75-4.355 4.837-4.725a.359.359 0 00-.082-.31.398.398 0 00-.363-.035c-.155.035-2.623 1.666-7.405 4.893-.701.482-1.336.717-1.903.704-.628-.013-1.834-.354-2.73-.646-1.098-.357-1.972-.546-1.896-1.153.039-.318.474-.64 1.305-.97z" fill="#393A40"/></g><defs><clipPath id="oclip0_1023_316"><path d="M0 0h32v32H0z"/></clipPath></defs></svg><svg viewBox="0 0 32 32" id="social-vk" xmlns="http://www.w3.org/2000/svg"><g clip-path="url(#pclip0_1023_304)"><path d="M20.933 0h-9.834C2.125 0-.002 2.127-.002 11.101v9.834c0 8.974 2.127 11.101 11.101 11.101h9.834c8.974 0 11.101-2.127 11.101-11.101V11.1C32.034 2.127 29.886 0 20.933 0zm4.927 22.853h-2.325c-.881 0-1.152-.699-2.737-2.305-1.377-1.334-1.986-1.511-2.326-1.511-.48 0-.615.135-.615.793v2.101c0 .564-.178.902-1.67.902-2.466 0-5.203-1.492-7.122-4.27-2.894-4.073-3.686-7.123-3.686-7.754 0-.34.135-.657.787-.657h2.33c.59 0 .814.271 1.043.902 1.153 3.327 3.072 6.24 3.864 6.24.292 0 .427-.134.427-.88v-3.436c-.089-1.585-.923-1.72-.923-2.283 0-.272.224-.543.584-.543h3.665c.495 0 .678.271.678.855v4.635c0 .5.224.678.359.678.292 0 .543-.177 1.084-.72 1.674-1.877 2.873-4.771 2.873-4.771.157-.34.428-.657 1.017-.657h2.331c.699 0 .855.36.699.86-.293 1.356-3.145 5.381-3.145 5.381-.245.406-.34.584 0 1.037.25.34 1.064 1.043 1.606 1.674.996 1.131 1.762 2.08 1.966 2.737.23.652-.109.991-.767.991l.003.001z"/></g><defs><clipPath id="pclip0_1023_304"><path d="M0 0h32v32H0z"/></clipPath></defs></svg><svg fill="none" viewBox="0 0 44 44" id="ticker-logo" xmlns="http://www.w3.org/2000/svg"><path fill-rule="evenodd" clip-rule="evenodd" d="M28.285 6.878a1 1 0 00-.425.057c-.192.074-22.003 13.15-23.562 14.125-.438.273-.558.38-.656.586a.977.977 0 00-.03.834c.043.108 1.967 2.573 4.276 5.479 5.734 7.212 6.462 8.115 6.659 8.25.118.083.305.123.612.133.964.03 16.785-.095 16.99-.134.463-.089.86-.535.847-.95-.003-.085-.86-6.333-1.904-13.884-1.156-8.353-1.944-13.815-2.013-13.95-.129-.251-.493-.501-.794-.546zM19.76 23.053c-.034.01-2.328-.282-5.098-.65-7.024-.933-6.993-.929-6.918-.98.073-.05 14.43-8.686 16.645-10.012l1.338-.801-2.952 6.212c-1.624 3.417-2.98 6.22-3.015 6.231zm9.317-1.07c.777 5.63 1.414 10.273 1.418 10.319.004.045-.696-.586-1.555-1.403l-4.42-4.203-2.86-2.717 2.965-6.237c2.512-5.285 2.97-6.219 3.003-6.116.021.067.673 4.728 1.45 10.358zm-12.215 7.241c-1.126 2.356-2.003 4.135-2.027 4.11-.184-.192-7.797-9.8-7.784-9.823.015-.027 11.649 1.499 11.753 1.542.024.01-.85 1.887-1.942 4.171zm8.215.864c2.333 2.218 4.235 4.047 4.227 4.066-.012.026-12.292.132-12.53.107-.038-.003.72-1.642 1.926-4.163 1.711-3.58 1.998-4.15 2.06-4.1.041.032 1.983 1.873 4.316 4.09z" fill="#255EA2"/></svg></svg>