<svg width="36" height="27" viewBox="0 0 36 27" fill="none" xmlns="http://www.w3.org/2000/svg">
<path fill-rule="evenodd" clip-rule="evenodd" d="M0.786537 0.197399C0.497482 0.338615 0.326319 0.509631 0.184484 0.798896C-0.013124 1.20167 -0.0137009 1.24751 0.0113005 13.6438C0.0363019 26.0416 0.0370712 26.0854 0.234679 26.3466C0.343723 26.4907 0.552389 26.6967 0.698455 26.8043L0.964047 27H18.0182H35.0723L35.3379 26.8043C35.484 26.6967 35.6927 26.4907 35.8017 26.3466C35.999 26.0857 36 26.0377 36 15.9606V5.83656L25.9513 5.7891L15.9027 5.74165L15.4511 5.53571C14.5599 5.12933 14.2025 4.6459 13.0009 2.22235L11.8991 0L6.54466 9.53716e-05C1.31657 0.000190275 1.18079 0.00484043 0.786537 0.197399ZM26.5664 20.2397C27.1247 20.5556 27.2976 20.9534 27.2974 21.9212C27.2972 23.2441 26.8852 23.7733 25.8552 23.7733C24.8294 23.7733 24.4132 23.243 24.413 21.9356C24.4128 20.9586 24.6248 20.5084 25.2228 20.2162C25.7278 19.9696 26.1005 19.9761 26.5664 20.2397ZM31.4194 20.2808C31.5588 20.3809 31.7732 20.6525 31.896 20.8843C32.0895 21.2498 32.1141 21.4101 32.0814 22.0909C32.0398 22.9572 31.9094 23.2229 31.3372 23.6072C30.6782 24.0499 29.6815 23.7573 29.3169 23.0141C29.1005 22.5727 29.0508 21.4628 29.2272 21.0035C29.3626 20.6509 29.6819 20.3161 30.0381 20.1534C30.4103 19.9835 31.0933 20.0464 31.4194 20.2808Z" fill="#255EA2"/>
</svg>
