<svg width="29" height="42" viewBox="0 0 29 42" fill="none" xmlns="http://www.w3.org/2000/svg">
<path fill-rule="evenodd" clip-rule="evenodd" d="M13.2194 0.0787422C11.0683 0.351144 9.07568 1.33947 7.46688 2.93194C6.02878 4.3555 5.10392 6.06616 4.70354 8.04322C4.55118 8.79551 4.42254 13.2806 4.55333 13.2806C4.59224 13.2806 5.82363 12.8841 7.28991 12.3993L9.95584 11.518V10.5267C9.95584 8.68996 10.2854 7.76401 11.2964 6.75992C12.2239 5.8389 13.2602 5.40161 14.5152 5.40161C16.2284 5.40161 17.8339 6.41357 18.5787 7.96287C18.942 8.71869 19.0442 9.28138 19.0442 10.5267V11.518L21.7101 12.3993C23.1764 12.8841 24.408 13.2806 24.4472 13.2806C24.4864 13.2806 24.4981 12.2392 24.4734 10.9621C24.4246 8.45392 24.3412 7.84083 23.8736 6.55064C22.2998 2.20904 17.8315 -0.50521 13.2194 0.0787422ZM7.22934 15.0389L0 17.4392V22.6439C0 28.1729 0.0151195 28.4412 0.415584 30.0258C0.682698 31.0827 0.953695 31.776 1.53758 32.8962C2.98609 35.6753 5.61187 38.0792 9.17639 39.8897C10.5306 40.5775 12.0362 41.1995 13.522 41.6851L14.4855 42L15.2984 41.7492C17.5237 41.0623 20.2955 39.7723 22.0575 38.6034C26.0221 35.9734 28.2891 32.6237 28.8919 28.5053C28.9719 27.9584 29 26.4259 29 22.6029V17.4393L21.8533 15.0721C17.9226 13.7702 14.6508 12.6901 14.5826 12.6718C14.5145 12.6536 11.2055 13.7188 7.22934 15.0389ZM15.676 19.0202C17.2045 19.4085 18.3448 20.3203 19.038 21.7086C19.5272 22.6886 19.6782 24.0318 19.4147 25.0615C19.237 25.7558 18.7737 26.6563 18.3544 27.1219L17.9956 27.5204L18.2676 29.9005C18.4172 31.2096 18.5417 32.3822 18.5441 32.5063L18.5484 32.732H14.5H10.4516L10.4559 32.5063C10.4583 32.3822 10.5828 31.2096 10.7324 29.9005L11.0044 27.5204L10.6456 27.1219C10.2263 26.6563 9.763 25.7558 9.58529 25.0615C9.42657 24.4413 9.42674 23.4037 9.58553 22.7345C10.2202 20.0602 13.0284 18.3475 15.676 19.0202ZM13.835 21.4308C12.7835 21.7261 12.0611 22.6046 11.9601 23.7105C11.8775 24.6153 12.2991 25.4524 13.1363 26.0458L13.6418 26.4041L13.4264 28.337L13.211 30.2698H14.5H15.789L15.5736 28.337L15.3582 26.4041L15.8637 26.0458C16.9587 25.2696 17.3419 24.0099 16.8316 22.8639C16.3336 21.7455 14.9944 21.1051 13.835 21.4308Z" fill="#255EA2"/>
</svg>
