<svg width="31" height="12" viewBox="0 0 31 12" fill="none" xmlns="http://www.w3.org/2000/svg">
<path d="M3.32448 11.5318C2.8126 11.5318 2.33927 11.4091 1.90451 11.1637C1.47677 10.9182 1.12967 10.5852 0.863195 10.1644C0.596721 9.7507 0.445981 9.29493 0.410909 8.79705C0.403908 8.62176 0.463501 8.4745 0.58972 8.35529C0.71594 8.2431 0.866712 8.18699 1.04201 8.18699C1.30145 8.18699 1.46625 8.38684 1.53637 8.78654C1.61351 9.2283 1.81684 9.59645 2.14643 9.89096C2.48301 10.1855 2.87571 10.3327 3.32448 10.3327C3.64002 10.3327 3.92754 10.2556 4.18698 10.1013C4.45345 9.94707 4.66382 9.7367 4.81807 9.47022C4.97233 9.21078 5.04948 8.92327 5.04948 8.60773V7.99766C4.5376 8.37632 3.96257 8.56565 3.32448 8.56565C2.80556 8.56565 2.32172 8.43243 1.87295 8.16596C1.42418 7.89948 1.06656 7.54186 0.800086 7.09309C0.533611 6.64432 0.400391 6.16048 0.400391 5.64157C0.400391 5.12265 0.533611 4.63881 0.800086 4.19004C1.06656 3.74127 1.42418 3.38365 1.87295 3.11718C2.32172 2.8507 2.80556 2.71748 3.32448 2.71748C3.85039 2.71748 4.33775 2.8507 4.78652 3.11718C5.23529 3.37662 5.58943 3.73076 5.84887 4.17953C6.11534 4.6283 6.24856 5.11565 6.24856 5.64157V8.60773C6.24856 9.13364 6.11534 9.621 5.84887 10.0698C5.58943 10.5185 5.23529 10.8727 4.78652 11.1321C4.33775 11.3986 3.85039 11.5318 3.32448 11.5318ZM3.32448 7.36657C3.64002 7.36657 3.92754 7.28942 4.18698 7.13516C4.45345 6.98091 4.66382 6.77403 4.81807 6.51459C4.97233 6.24811 5.04948 5.95712 5.04948 5.64157C5.04948 5.32602 4.97233 5.03851 4.81807 4.77907C4.66382 4.51259 4.45345 4.30223 4.18698 4.14797C3.92754 3.99371 3.64002 3.91657 3.32448 3.91657C3.00893 3.91657 2.71793 3.99371 2.45146 4.14797C2.18498 4.30223 1.97462 4.51259 1.82036 4.77907C1.6661 5.03851 1.58896 5.32602 1.58896 5.64157C1.58896 5.95712 1.6661 6.24811 1.82036 6.51459C1.97462 6.77403 2.18498 6.98091 2.45146 7.13516C2.71793 7.28942 3.00893 7.36657 3.32448 7.36657ZM7.63757 8.28166C7.46224 8.28166 7.3185 8.22207 7.20632 8.10285C7.0941 7.97663 7.03802 7.82237 7.03802 7.64004V0.719007C7.03802 0.536679 7.0941 0.385938 7.20632 0.26672C7.3185 0.140501 7.46224 0.0773926 7.63757 0.0773926C7.81286 0.0773926 7.9566 0.140501 8.06882 0.26672C8.181 0.385938 8.23711 0.536679 8.23711 0.719007V7.64004C8.23711 7.82237 8.181 7.97663 8.06882 8.10285C7.9566 8.22207 7.81286 8.28166 7.63757 8.28166ZM14.2814 8.59721C14.1061 8.59721 13.9623 8.5411 13.8502 8.42891C13.738 8.31673 13.6819 8.17296 13.6819 7.99766C13.4364 8.17999 13.163 8.32021 12.8614 8.4184C12.5669 8.51658 12.2654 8.56565 11.9569 8.56565C11.438 8.56565 10.9541 8.43243 10.5053 8.16596C10.0566 7.89948 9.69895 7.54186 9.43248 7.09309C9.166 6.64432 9.03278 6.16048 9.03278 5.64157C9.03278 5.12265 9.166 4.63881 9.43248 4.19004C9.69895 3.74127 10.0566 3.38365 10.5053 3.11718C10.9541 2.8507 11.438 2.71748 11.9569 2.71748C12.4758 2.71748 12.9596 2.8507 13.4084 3.11718C13.8572 3.38365 14.2148 3.74127 14.4813 4.19004C14.7477 4.63881 14.881 5.12265 14.881 5.64157V7.95559C14.881 8.13792 14.8248 8.28866 14.7127 8.40788C14.6005 8.5341 14.4567 8.59721 14.2814 8.59721ZM11.9569 7.36657C12.2724 7.36657 12.5599 7.28942 12.8194 7.13516C13.0858 6.98091 13.2962 6.77403 13.4505 6.51459C13.6047 6.24811 13.6819 5.95712 13.6819 5.64157C13.6819 5.32602 13.6047 5.03851 13.4505 4.77907C13.2962 4.51259 13.0858 4.30223 12.8194 4.14797C12.5599 3.99371 12.2724 3.91657 11.9569 3.91657C11.6413 3.91657 11.3503 3.99371 11.0839 4.14797C10.8174 4.30223 10.607 4.51259 10.4528 4.77907C10.2985 5.03851 10.2214 5.32602 10.2214 5.64157C10.2214 5.95712 10.2985 6.24811 10.4528 6.51459C10.607 6.77403 10.8174 6.98091 11.0839 7.13516C11.3503 7.28942 11.6413 7.36657 11.9569 7.36657ZM16.312 8.28166C16.1367 8.28166 15.986 8.21855 15.8597 8.09233C15.7335 7.96611 15.6704 7.81534 15.6704 7.64004V7.54538C15.6704 7.41916 15.716 7.29994 15.8072 7.18776L18.6155 3.94812H16.312C16.1367 3.94812 15.986 3.88501 15.8597 3.75879C15.7335 3.63257 15.6704 3.4818 15.6704 3.30651C15.6704 3.15225 15.73 3.02251 15.8492 2.91733C15.9754 2.81215 16.1297 2.75956 16.312 2.75956H19.7936C19.9759 2.75956 20.1267 2.82267 20.2459 2.94889C20.3721 3.0681 20.4352 3.21884 20.4352 3.40117V3.48532C20.4352 3.61154 20.3896 3.73076 20.2985 3.84294L17.4901 7.08257H19.7936C19.9759 7.08257 20.1267 7.14568 20.2459 7.2719C20.3721 7.39112 20.4352 7.54186 20.4352 7.72419C20.4352 7.87845 20.3721 8.0117 20.2459 8.12388C20.1267 8.22907 19.9759 8.28166 19.7936 8.28166H16.312ZM24.1537 8.56565C23.6347 8.56565 23.1508 8.43243 22.7021 8.16596C22.2533 7.89948 21.8956 7.54186 21.6292 7.09309C21.3627 6.64432 21.2295 6.16048 21.2295 5.64157C21.2295 5.12265 21.3627 4.63881 21.6292 4.19004C21.8956 3.74127 22.2533 3.38365 22.7021 3.11718C23.1508 2.8507 23.6347 2.71748 24.1537 2.71748C24.6723 2.71748 25.1562 2.8507 25.6052 3.11718C26.0538 3.38365 26.4115 3.74127 26.678 4.19004C26.9443 4.63881 27.0777 5.12265 27.0777 5.64157V5.74675C27.0705 5.89401 27.0074 6.01323 26.8884 6.10437C26.776 6.19552 26.6429 6.24111 26.4887 6.24111H22.5338C22.653 6.5777 22.8598 6.85117 23.1543 7.06154C23.4559 7.2649 23.7889 7.36657 24.1537 7.36657C24.4761 7.36657 24.7742 7.28242 25.0477 7.11413C25.2088 7.02298 25.3527 6.97739 25.479 6.97739C25.6472 6.97739 25.7945 7.05102 25.9207 7.19827C26.0187 7.31749 26.068 7.4472 26.068 7.58745C26.068 7.6716 26.0469 7.75574 26.0049 7.83989C25.9628 7.92404 25.8997 7.99415 25.8155 8.05026C25.3034 8.39384 24.7496 8.56565 24.1537 8.56565ZM25.7629 5.04203C25.6436 4.70544 25.4369 4.43548 25.1424 4.23212C24.8479 4.02175 24.5182 3.91657 24.1537 3.91657C23.7889 3.91657 23.4594 4.02175 23.1649 4.23212C22.8704 4.43548 22.66 4.70544 22.5338 5.04203H25.7629ZM28.4668 8.28166C28.2913 8.28166 28.1476 8.22207 28.0356 8.10285C27.9231 7.97663 27.8669 7.82237 27.8669 7.64004V5.01047C27.8669 4.58274 27.9688 4.19004 28.1723 3.83242C28.3754 3.4678 28.6525 3.17329 29.0032 2.94889C29.3536 2.71748 29.7359 2.58426 30.1497 2.54919C30.318 2.53515 30.4581 2.59126 30.5701 2.71748C30.6895 2.8437 30.7493 2.99447 30.7493 3.16977V3.19081C30.7493 3.52039 30.5458 3.72024 30.1392 3.79035C29.8306 3.85346 29.5745 3.99371 29.3714 4.21108C29.1679 4.42845 29.0663 4.69492 29.0663 5.01047V7.64004C29.0663 7.82237 29.0101 7.97663 28.8981 8.10285C28.7856 8.22207 28.642 8.28166 28.4668 8.28166Z" fill="#EDEFF1"/>
</svg>
