<svg width="21" height="21" viewBox="0 0 21 21" fill="none" xmlns="http://www.w3.org/2000/svg">
<path d="M10.5 1C6.91588 1 4 4.08684 4 7.88105C4 12.5898 9.81686 19.5025 10.0645 19.7945C10.2971 20.0688 10.7033 20.0683 10.9355 19.7945C11.1831 19.5025 17 12.5898 17 7.88105C16.9999 4.08684 14.0841 1 10.5 1ZM10.5 11.3431C8.69674 11.3431 7.22972 9.79003 7.22972 7.88105C7.22972 5.97207 8.69678 4.41904 10.5 4.41904C12.3032 4.41904 13.7702 5.97211 13.7702 7.88109C13.7702 9.79007 12.3032 11.3431 10.5 11.3431Z" fill="#255EA2"/>
</svg>
