<svg width="21" height="21" viewBox="0 0 21 21" fill="none" xmlns="http://www.w3.org/2000/svg">
<path d="M7.13094 9.16526C7.63509 10.0792 8.21614 10.9564 8.97054 11.7562C9.72737 12.561 10.6685 13.2934 11.8868 13.9191C11.9771 13.9632 12.0626 13.9632 12.1395 13.9326C12.2554 13.8884 12.3739 13.7915 12.4898 13.675C12.5802 13.5842 12.6925 13.4394 12.8096 13.2812C13.2784 12.6616 13.8582 11.8924 14.6773 12.2776C14.6956 12.2862 14.7091 12.296 14.7274 12.3034L17.4593 13.8823C17.4679 13.8872 17.4776 13.8958 17.4849 13.9007C17.845 14.1497 17.994 14.5337 17.9976 14.9692C17.9976 15.4121 17.8353 15.9102 17.5972 16.331C17.2823 16.8867 16.8184 17.2547 16.2838 17.4976C15.7747 17.7332 15.2083 17.8595 14.6639 17.9405C13.8094 18.0669 13.0086 17.9859 12.1895 17.7332C11.3887 17.4841 10.5819 17.0732 9.70052 16.526L9.63582 16.4843C9.23177 16.2304 8.79475 15.9592 8.36629 15.639C6.7989 14.4491 5.201 12.7303 4.15974 10.8386C3.28694 9.25114 2.81087 7.53731 3.07088 5.90445C3.21492 5.00889 3.597 4.1943 4.2635 3.65696C4.84456 3.18587 5.62703 2.92825 6.64021 3.01903C6.75618 3.02762 6.85994 3.09509 6.91487 3.19569L8.66658 6.17189C8.92293 6.50557 8.95467 6.83681 8.81429 7.16804C8.69832 7.43916 8.46394 7.68943 8.14412 7.92252C8.05013 8.00349 7.93782 8.08568 7.81941 8.17156C7.42757 8.4574 6.98201 8.78741 7.1346 9.17508L7.13094 9.16526Z" fill="#255EA2"/>
</svg>
