<svg width="106" height="80" viewBox="0 0 106 80" xmlns="http://www.w3.org/2000/svg">
<path fill-rule="evenodd" clip-rule="evenodd" d="M0.188654 0.578613C-0.0502531 0.963887 -0.064348 1.7035 0.15835 2.22165C0.380344 2.7398 11.4786 11.3895 24.8208 21.4431C38.1629 31.4968 49.0026 39.9356 48.9088 40.1964C48.8151 40.4572 37.7972 48.9431 24.4247 59.0544C1.35712 76.4972 -1.85932 79.3987 1.21617 79.99C1.82436 80.1067 9.11843 75.0468 17.4252 68.7453C25.7327 62.4439 37.5237 53.5284 43.6289 48.9319C49.7334 44.336 54.7286 40.3581 54.7286 40.0924C54.7286 39.3717 3.33462 0.584941 1.8758 0.204589C1.18657 0.0246071 0.426857 0.192637 0.188654 0.578613ZM51.5967 0.639779C51.3789 0.991306 51.3818 1.7035 51.6045 2.22165C51.8265 2.7398 62.9247 11.3895 76.2669 21.4431C89.609 31.4968 100.449 39.9286 100.355 40.1802C100.173 40.6682 94.3111 45.1691 68.471 64.6599C59.5561 71.3846 52.0294 77.2249 51.7447 77.639C51.028 78.6809 51.4734 79.758 52.7208 79.9991C53.5256 80.1552 81.2684 59.6696 104.413 41.8303C105.828 40.7392 106.294 39.9658 105.822 39.4898C103.643 37.29 53.6799 0 52.9132 0C52.4072 0 51.8145 0.287549 51.5967 0.639779Z"/>
</svg>
