<svg width="32" height="32" viewBox="0 0 32 32" xmlns="http://www.w3.org/2000/svg">
<g clip-path="url(#clip0_1023_301)">
<path d="M19.1066 19.1066C16.5896 21.7038 16.4065 24.9416 16.1892 32.0351C22.8021 32.0351 27.3671 32.0122 29.724 29.724C32.0122 27.3671 32.0351 22.5847 32.0351 16.1892C24.9416 16.418 21.7038 16.5896 19.1066 19.1066ZM0 16.1892C0 22.5847 0.0228822 27.3671 2.3111 29.724C4.66797 32.0122 9.23297 32.0351 15.8459 32.0351C15.6171 24.9416 15.4455 21.7038 12.9284 19.1066C10.3313 16.5896 7.09348 16.4065 0 16.1892ZM15.8459 0C9.24441 0 4.66797 0.0228822 2.3111 2.3111C0.0228822 4.66797 0 9.45035 0 15.8459C7.09348 15.6171 10.3313 15.4455 12.9284 12.9284C15.4455 10.3313 15.6285 7.09348 15.8459 0ZM19.1066 12.9284C16.5896 10.3313 16.4065 7.09348 16.1892 0C22.8021 0 27.3671 0.0228822 29.724 2.3111C32.0122 4.66797 32.0351 9.45035 32.0351 15.8459C24.9416 15.6171 21.7038 15.4455 19.1066 12.9284Z" />
<path d="M32.0351 16.1892V15.8459C24.9416 15.6171 21.7038 15.4455 19.1066 12.9284C16.5896 10.3313 16.4065 7.09348 16.1892 0H15.8459C15.6171 7.09348 15.4455 10.3313 12.9284 12.9284C10.3313 15.4455 7.09348 15.6285 0 15.8459V16.1892C7.09348 16.418 10.3313 16.5896 12.9284 19.1066C15.4455 21.7038 15.6285 24.9416 15.8459 32.0351H16.1892C16.418 24.9416 16.5896 21.7038 19.1066 19.1066C21.7038 16.5896 24.9416 16.4065 32.0351 16.1892Z" fill="#393A40"/>
</g>
<defs>
<clipPath id="clip0_1023_301">
<rect width="32" height="32" />
</clipPath>
</defs>
</svg>
