<svg width="32" height="32" viewBox="0 0 32 32" xmlns="http://www.w3.org/2000/svg">
<g clip-path="url(#clip0_1023_304)">
<path d="M20.933 0H11.0992C2.12538 0 -0.00195312 2.12733 -0.00195312 11.1012V20.9349C-0.00195312 29.9088 2.12538 32.0361 11.0992 32.0361H20.933C29.9068 32.0361 32.0341 29.9088 32.0341 20.9349V11.1012C32.0341 2.12733 29.8858 0 20.933 0V0ZM25.8604 22.853H23.5348C22.6539 22.853 22.3826 22.1543 20.7978 20.5485C19.4213 19.214 18.8117 19.0369 18.4723 19.0369C17.9928 19.0369 17.8566 19.172 17.8566 19.8297V21.931C17.8566 22.4946 17.6794 22.833 16.1878 22.833C13.7211 22.833 10.9841 21.3414 9.06498 18.5623C6.17081 14.4899 5.37894 11.4395 5.37894 10.8088C5.37894 10.4695 5.51409 10.1521 6.1658 10.1521H8.49636C9.086 10.1521 9.31025 10.4234 9.5395 11.0541C10.6918 14.3808 12.6109 17.2949 13.4027 17.2949C13.695 17.2949 13.8302 17.1598 13.8302 16.414V12.9782C13.7411 11.3935 12.9072 11.2573 12.9072 10.6947C12.9072 10.4234 13.1314 10.1521 13.4908 10.1521H17.1558C17.6514 10.1521 17.8336 10.4234 17.8336 11.0071V15.6421C17.8336 16.1427 18.0578 16.3199 18.193 16.3199C18.4853 16.3199 18.7356 16.1427 19.2772 15.6001C20.951 13.723 22.1503 10.8289 22.1503 10.8289C22.3065 10.4895 22.5778 10.1721 23.1674 10.1721H25.498C26.1967 10.1721 26.3529 10.5315 26.1967 11.0321C25.9044 12.3876 23.0523 16.413 23.0523 16.413C22.807 16.8194 22.7129 16.9966 23.0523 17.4501C23.3026 17.7895 24.1165 18.4933 24.6581 19.1239C25.6541 20.2552 26.42 21.2042 26.6242 21.8609C26.8535 22.5127 26.5151 22.852 25.8574 22.852L25.8604 22.853Z" />
</g>
<defs>
<clipPath id="clip0_1023_304">
<rect width="32" height="32" />
</clipPath>
</defs>
</svg>
