<svg width="44" height="44" viewBox="0 0 44 44" fill="none" xmlns="http://www.w3.org/2000/svg">
<path fill-rule="evenodd" clip-rule="evenodd" d="M28.2847 6.87751C28.1749 6.86112 27.9835 6.88695 27.8595 6.93507C27.6684 7.00912 5.85682 20.0845 4.29756 21.0598C3.86013 21.3333 3.7403 21.4405 3.642 21.6461C3.50714 21.9281 3.49788 22.1891 3.61228 22.48C3.65471 22.5879 5.57903 25.0532 7.88843 27.9585C13.622 35.1714 14.3501 36.0737 14.5465 36.2099C14.6646 36.2918 14.8525 36.3323 15.1593 36.3419C16.1228 36.372 31.9443 36.247 32.1494 36.2077C32.6123 36.119 33.0098 35.6733 32.9959 35.2587C32.993 35.1729 32.1361 28.9249 31.0917 21.3742C29.9363 13.0211 29.1482 7.55892 29.0789 7.42399C28.95 7.17297 28.586 6.92251 28.2847 6.87751ZM19.7604 23.053C19.7263 23.0634 17.4319 22.7708 14.662 22.4029C7.63802 21.4697 7.66877 21.4741 7.74393 21.4223C7.81653 21.3723 22.174 12.737 24.389 11.4112L25.7275 10.61L22.775 16.8221C21.1512 20.2387 19.7947 23.0426 19.7604 23.053ZM29.0775 21.9836C29.8536 27.6131 30.4914 32.2563 30.495 32.3017C30.4986 32.3471 29.7987 31.7159 28.9399 30.8989C28.081 30.082 26.0919 28.1907 24.5196 26.6961L21.6609 23.9787L24.6252 17.7417C27.1368 12.4572 27.5953 11.5233 27.6279 11.6263C27.6491 11.6933 28.3014 16.354 29.0775 21.9836ZM16.8621 29.2244C15.736 31.5796 14.8585 33.3588 14.8351 33.3344C14.6515 33.142 7.0384 23.5347 7.05104 23.5112C7.06587 23.4836 18.6997 25.0098 18.8038 25.053C18.8281 25.0631 17.9543 26.9402 16.8621 29.2244ZM25.0765 30.0882C27.4097 32.3058 29.3121 34.1352 29.304 34.1535C29.2923 34.1798 17.0123 34.2856 16.774 34.2615C16.7363 34.2576 17.4942 32.619 18.6997 30.0979C20.4112 26.5184 20.6977 25.9486 20.7609 25.9984C20.8012 26.0302 22.7432 27.8706 25.0765 30.0882Z" fill="#255EA2"/>
</svg>
